<svg width="96" height="126" viewBox="0 0 96 126" fill="none" xmlns="http://www.w3.org/2000/svg">
<g id="&#208;&#188;&#208;&#176;&#209;&#136;&#208;&#184;&#208;&#189;&#208;&#186;&#208;&#176; 1" clip-path="url(#clip0_71_17)">
<path id="Vector" d="M9.97342 79.2548L6.19745 79.4996C4.63781 79.5811 3.03712 79.5403 2.58564 77.6232C2.13417 75.7061 2.58565 73.9113 4.35051 73.2995C6.11537 72.6876 8.57796 72.6061 10.7122 72.4837C10.9585 72.4429 11.492 73.3403 11.5741 73.8298C11.6533 74.9974 11.667 76.1685 11.6151 77.3377L13.0517 74.8903C15.1038 71.5047 16.9918 68.0376 19.1671 64.7744C22.0401 60.4099 25.9803 58.0849 31.5211 58.2072C42.7259 58.452 53.9307 58.3704 65.1765 58.248C70.0606 58.1664 73.6314 60.2875 76.2582 64.0402C78.8849 67.7929 81.1012 72.035 83.5228 76.0732C83.7344 76.5081 84.0793 76.8651 84.5078 77.093C84.4258 76.2772 84.4668 75.4614 84.3437 74.6864C84.0564 72.8508 84.8362 72.1166 86.601 72.3205C88.3659 72.5245 89.3509 72.4429 90.6643 72.81C91.9777 73.1771 93.5373 74.8087 93.4963 76.8074C93.4553 78.8061 92.5933 79.4996 90.8285 79.4996C89.0636 79.4996 87.5861 79.3364 85.9033 79.2548C87.8734 81.2943 89.6793 83.293 91.6494 85.1286C94.5634 87.9023 95.9999 91.0839 95.7947 95.2445C95.4664 101.281 95.7126 107.359 95.7126 113.396C95.7206 114.282 95.6657 115.168 95.5485 116.047C95.138 118.372 94.0299 119.351 91.6494 119.351H5.08928C1.60061 119.351 0.328279 118.332 0.287236 114.824C0.164106 107.237 0.164096 99.609 0.328269 91.9813C0.398633 90.5725 0.932116 89.2255 1.84687 88.147C3.94007 85.618 6.27953 83.3746 8.57795 81.0088C9.11221 80.5281 9.67408 80.0787 10.2607 79.6627L9.97342 79.2548ZM80.1983 76.3179L80.5677 75.6653C78.2693 72.1982 75.9709 68.731 73.7135 65.2639C71.9076 62.531 69.3629 61.3481 66.1205 61.3481L35.9538 61.1033C33.368 61.1033 30.7823 61.3888 28.1966 61.4704C27.197 61.4936 26.2174 61.7537 25.3393 62.2291C24.4612 62.7044 23.71 63.3813 23.1483 64.2033C20.6857 67.8744 18.2641 71.5455 15.8426 75.2574C15.699 75.594 15.6157 75.9529 15.5963 76.3179H80.1983ZM53.1919 104.259L65.4638 103.362C70.0196 103.076 72.7284 100.955 73.9597 96.5905C74.7806 93.6944 73.9597 91.8181 71.0867 91.0431C68.5959 90.3719 66.0327 90.0021 63.4527 89.9418C53.0688 89.8194 42.6438 89.8194 32.2599 89.9418C29.6843 90.0005 27.1292 90.4123 24.6669 91.1655C24.0252 91.4265 23.4434 91.8141 22.9567 92.3049C22.4699 92.7956 22.0883 93.3793 21.8349 94.0208C20.8499 97.4063 24.9131 102.995 28.4429 103.239C36.6925 103.81 53.1919 104.381 53.1919 104.259ZM19.4954 117.924H76.4634C76.2992 117.434 76.2992 117.067 76.094 116.822C73.0978 112.662 69.2808 109.725 63.9042 109.684C53.2329 109.643 42.5617 109.603 31.9315 109.725C26.719 109.766 21.1372 113.478 19.4954 117.924ZM79.7058 99.3642C83.5228 99.3234 87.2167 98.7524 90.5001 96.6721C92.9217 95.1221 93.6605 91.0023 91.8546 88.7589C91.2716 88.0983 90.4717 87.6647 89.5972 87.5352C85.2056 87.0457 78.4334 90.8799 76.5044 94.9181C74.5754 98.9563 74.9448 99.3642 79.2953 99.3642H79.7058ZM16.253 99.5682L20.3573 98.834C19.9469 97.284 19.5365 95.7339 19.085 94.2247C18.9207 93.8433 18.6837 93.4971 18.3873 93.205C15.3911 89.4115 11.1637 88.0246 6.56684 87.5352C5.78702 87.4536 4.67885 88.0654 4.14529 88.7181C2.21626 91.0023 3.03713 95.2037 5.5818 96.7537C8.82421 98.7116 12.436 99.3234 16.253 99.5682ZM87.545 116.129C88.489 116.129 89.5151 116.333 90.377 116.047C91.2389 115.762 92.5113 115.191 92.9627 114.416C95.138 110.745 92.7986 106.625 88.5301 106.625C86.558 106.697 84.5951 106.929 82.6609 107.318C80.4856 107.685 79.6647 109.276 80.3214 111.397C81.5117 115.068 83.1124 116.129 87.545 116.129ZM8.37273 116.129H10.0145C12.9285 116.088 16.1299 112.947 15.7605 110.051C15.6374 109.113 14.6113 107.767 13.7083 107.481C11.6645 106.912 9.55153 106.623 7.42875 106.625C3.98112 106.584 2.38043 108.379 2.42147 111.846C2.46252 115.313 3.52964 116.129 7.34665 116.129H8.37273Z" fill="#0F84F0" stroke="#0F84F0" stroke-miterlimit="10"/>
<path id="Vector_2" d="M67.5981 27.7779H28.4019C28.3978 26.5617 28.7235 25.3669 29.3446 24.319C29.9657 23.2711 30.8593 22.4087 31.9316 21.8226C34.8332 20.2071 37.9018 18.9079 41.0842 17.9476C42.8081 17.4173 43.3827 16.7239 43.3416 15.0107C43.2595 10.8909 43.3827 6.73035 43.2595 2.56979C43.2185 0.81582 43.7931 0.0816004 45.64 0.20397C47.139 0.380585 48.6528 0.394265 50.1548 0.244763C52.1659 0.040813 52.6995 0.856612 52.6584 2.61058C52.5353 6.85273 52.6584 11.0541 52.5763 15.2554C52.5763 16.8463 53.1509 17.3765 54.7106 17.9068C57.9313 18.9231 61.0502 20.234 64.0274 21.8226C66.1206 22.9647 67.3108 25.045 67.5981 27.7779Z" fill="#0F84F0" stroke="#0F84F0" stroke-miterlimit="10"/>
<path id="Vector_3" d="M95.6717 120.779C95.5896 120.412 95.6717 120.616 95.6717 120.82C95.959 125.633 95.7948 125.837 90.9107 125.796H85.7803C82.1685 125.714 81.5939 125.021 82.3327 120.82L95.6717 120.779Z" fill="#0F84F0" stroke="#0F84F0" stroke-miterlimit="10"/>
<path id="Vector_4" d="M13.7905 120.779C14.1599 125.266 13.7905 125.674 9.9735 125.755H3.24242C0.656696 125.755 0.287312 125.347 0.246269 122.818C0.205226 121.962 0.246269 121.064 0.246269 120.738L13.7905 120.779Z" fill="#0F84F0" stroke="#0F84F0" stroke-miterlimit="10"/>
<path id="Vector_5" d="M46.8304 40.0556C46.7756 38.5732 46.803 37.089 46.9124 35.6095C46.9535 35.0793 47.5691 34.6306 47.9385 34.1411C48.3489 34.6306 49.0467 35.0793 49.0467 35.5688C49.1698 38.5872 49.1698 41.6465 49.0467 44.6649C49.0467 45.1544 48.3489 45.6439 47.9796 46.1333C47.6102 45.6439 46.9535 45.236 46.9124 44.7057C46.8026 43.1582 46.7752 41.606 46.8304 40.0556Z" fill="#0F84F0" stroke="#0F84F0" stroke-miterlimit="10"/>
<path id="Vector_6" d="M59.4305 44.7466C58.8149 44.9505 58.1992 45.3176 57.6657 45.236C57.1321 45.1545 56.5165 44.6242 56.4344 44.2163C55.7777 41.1163 55.2441 37.9754 54.7516 34.8346C54.7106 34.4675 55.2852 33.8149 55.6956 33.6109C56.106 33.407 56.8038 34.0188 56.8448 34.3859C57.5015 37.5675 58.0351 40.7492 58.6097 43.9308C58.897 44.2163 59.1432 44.5018 59.4305 44.7466Z" fill="#0F84F0" stroke="#0F84F0" stroke-miterlimit="10"/>
<path id="Vector_7" d="M37.2671 44.1754C37.8827 40.7491 38.4163 37.6083 39.073 34.5082C39.1551 34.1003 39.8939 33.8556 40.3453 33.5701C40.6326 34.0188 41.2072 34.5082 41.1662 34.9161C40.7147 38.0162 40.1812 41.0754 39.5245 44.0939C39.4424 44.5833 38.7036 45.032 38.17 45.1952C37.6365 45.3584 37.5133 44.4202 37.2671 44.1754Z" fill="#0F84F0" stroke="#0F84F0" stroke-miterlimit="10"/>
<path id="Vector_8" d="M67.9675 41.6872C67.7623 42.0135 67.5161 42.6254 67.2288 42.707C66.9415 42.7885 65.9975 42.5438 65.8743 42.2583C64.6431 39.0767 63.4938 35.9358 62.3857 32.7134C62.3036 32.4279 62.714 31.6937 62.9603 31.6529C63.2065 31.6121 64.1916 31.7753 64.3147 32.1016C65.587 35.2016 66.7363 38.3832 67.9675 41.6872Z" fill="#0F84F0" stroke="#0F84F0" stroke-miterlimit="10"/>
<path id="Vector_9" d="M33.7376 32.5504C32.4652 35.9768 31.316 39.1584 30.0437 42.2992C29.9206 42.5847 29.0176 42.8295 28.6893 42.6663C28.4943 42.5132 28.3427 42.3124 28.2492 42.0836C28.1557 41.8549 28.1235 41.6059 28.1557 41.361C29.2228 38.3018 30.331 35.2425 31.5212 32.2241C31.6444 31.857 32.4242 31.5307 32.7936 31.6122C33.163 31.6938 33.4503 32.2649 33.7376 32.5504Z" fill="#0F84F0" stroke="#0F84F0" stroke-miterlimit="10"/>
<path id="Vector_10" d="M25.1594 49.3558C25.734 47.8058 26.1855 46.4597 26.8012 45.1952C26.9653 44.8689 27.7862 44.5426 28.1145 44.7058C28.3153 44.8486 28.4768 45.0392 28.5844 45.2601C28.6919 45.481 28.742 45.7251 28.7302 45.9702C28.3696 47.2703 27.9029 48.539 27.3347 49.7637C27.1937 49.966 27.0024 50.1287 26.7795 50.2359C26.5566 50.3431 26.3095 50.3912 26.0624 50.3755C25.693 50.294 25.4057 49.6821 25.1594 49.3558Z" fill="#0F84F0" stroke="#0F84F0" stroke-miterlimit="10"/>
<path id="Vector_11" d="M67.9265 44.2979C68.46 44.6242 68.9115 44.7057 68.9936 44.9505C69.5682 46.3781 70.1428 47.8058 70.5943 49.315C70.6764 49.5597 70.2249 50.2124 69.9376 50.3348C69.6503 50.4571 68.8294 50.2532 68.7063 49.9676C68.1208 48.5413 67.6138 47.0843 67.1877 45.6031C67.1056 45.2768 67.6392 44.7873 67.9265 44.2979Z" fill="#0F84F0" stroke="#0F84F0" stroke-miterlimit="10"/>
<path id="Vector_12" d="M35.9129 51.9255C36.1591 50.661 36.2823 49.3965 36.6106 48.1728C36.7337 47.7241 37.4725 47.5202 37.924 47.1938C38.2113 47.6425 38.7449 48.132 38.7449 48.6215C38.6493 49.8237 38.4292 51.0129 38.0882 52.1702C37.9709 52.424 37.8004 52.65 37.588 52.8329C37.3756 53.0158 37.1263 53.1515 36.8569 53.2308C36.3233 53.3123 35.7077 52.9452 35.1331 52.7413L35.9129 51.9255Z" fill="#0F84F0" stroke="#0F84F0" stroke-miterlimit="10"/>
<path id="Vector_13" d="M57.0911 48.2951C57.2963 48.0504 57.6246 47.3162 57.994 47.2754C58.2675 47.2977 58.531 47.3878 58.7605 47.5374C58.9899 47.6871 59.178 47.8915 59.3074 48.132C59.6355 49.4429 59.8416 50.781 59.923 52.1294C59.8874 52.3664 59.7887 52.5897 59.6372 52.7761C59.4856 52.9626 59.2868 53.1054 59.0611 53.1899C58.8193 53.1678 58.587 53.0852 58.386 52.9496C58.1851 52.8141 58.0219 52.6301 57.9119 52.4149C57.5636 51.0574 57.2896 49.6821 57.0911 48.2951Z" fill="#0F84F0" stroke="#0F84F0" stroke-miterlimit="10"/>
<path id="Vector_14" d="M49.2108 51.1504L48.0616 53.9241C47.7332 53.0268 47.2407 52.1294 47.1997 51.232C47.1586 50.3346 47.6512 49.3149 47.8974 48.3767L49.2108 51.1504Z" fill="#0F84F0" stroke="#0F84F0" stroke-miterlimit="10"/>
</g>
<defs>
<clipPath id="clip0_71_17">
<rect width="96" height="126" fill="white"/>
</clipPath>
</defs>
</svg>
