<svg width="116" height="102" viewBox="0 0 116 102" fill="none" xmlns="http://www.w3.org/2000/svg">
<g id="&#208;&#154;&#208;&#176;&#209;&#128;&#209;&#130;&#208;&#186;&#208;&#184;">
<g id="&#208;&#146;&#208;&#181;&#208;&#186;&#209;&#130;&#208;&#190;&#209;&#128; &#208;&#186;&#208;&#176;&#209;&#128;&#209;&#130;">
<path id="Vector" d="M0.00860121 30.1501H105.923V30.593C105.923 42.0987 105.923 53.6045 105.923 65.1102C105.923 70.0175 102.706 74.0242 97.9019 75.0871C97.2823 75.2252 96.6495 75.2959 96.0146 75.298C67.3027 75.3085 38.5902 75.311 9.87693 75.3053C5.28166 75.3053 1.01259 71.7372 0.220413 67.2317C0.0890323 66.4933 0.0213549 65.7451 0.0181291 64.9953C0.00683249 53.5423 0.00401298 42.0893 0.00966131 30.6362L0.00860121 30.1501ZM57.9954 37.6829H17.6928V42.6323H57.9954V37.6829Z" fill="#0F84F0"/>
<path id="Vector_2" d="M105.906 17.5507H0.0547148C0.0350622 17.5027 0.0215413 17.4523 0.0144699 17.401C0.0250605 14.7133 -0.0533048 12.0235 0.0727235 9.33787C0.218874 6.22103 1.69732 3.74211 4.21259 1.89794C5.98228 0.602069 7.98921 0 10.1868 0C38.7108 0 67.237 0.00175607 95.7653 0.00527077C100.696 0.00527077 104.727 3.30136 105.72 8.10632C105.846 8.72597 105.911 9.35628 105.915 9.98845C105.938 12.3999 105.925 14.8113 105.925 17.2238C105.924 17.3282 105.913 17.4305 105.906 17.5507Z" fill="#0F84F0"/>
<path id="Vector_3" d="M111.023 48.2417C111.151 48.9355 111.281 49.6283 111.405 50.3231C112.138 54.4276 112.87 58.5328 113.601 62.6386C114.251 66.2904 114.899 69.9426 115.544 73.595C115.693 74.4386 115.862 75.2821 115.952 76.1256C116.46 81.0708 112.906 85.8368 107.981 86.7636C103.997 87.5133 99.9993 88.1955 96.0077 88.9062C92.6893 89.4966 89.3734 90.0864 86.0599 90.6755L74.6284 92.7031L63.7847 94.6327L51.9232 96.7352C48.6048 97.3242 45.2892 97.9136 41.9765 98.5034C38.4533 99.129 34.9291 99.7529 31.4039 100.375C28.6503 100.865 25.8967 101.377 23.1347 101.851C20.6236 102.291 18.0386 101.751 15.9176 100.342C13.7966 98.933 12.3027 96.7643 11.7466 94.2868C11.233 92.0188 10.8814 89.7138 10.4609 87.4237C10.0479 85.1742 9.63767 82.9227 9.23029 80.6691C9.20911 80.5542 9.1964 80.4392 9.1731 80.2821C9.58189 80.3011 9.95998 80.3359 10.3381 80.3359C38.7717 80.3359 67.2051 80.3324 95.638 80.3253C101.28 80.3253 105.664 77.8675 108.711 73.1406C110.276 70.7154 110.963 68.0056 110.956 65.1155C110.944 59.6325 110.956 54.1496 110.956 48.6666C110.956 48.5274 110.956 48.3883 110.956 48.2449L111.023 48.2417Z" fill="#0F84F0"/>
</g>
</g>
</svg>
