<svg width="21" height="13" viewBox="0 0 21 13" fill="none" xmlns="http://www.w3.org/2000/svg">
<mask id="path-1-inside-1_1462_44" fill="white">
<path d="M0 2.71392L2.75689 0L10.517 7.43814L18.2771 0L21 2.71392L10.517 13L0 2.71392Z"/>
</mask>
<path d="M2.75689 0L-40.0365 -43.471L2.19017 -85.0395L44.9671 -44.0374L2.75689 0ZM0 2.71392L-42.6521 46.3236L-87.0963 2.85529L-42.7934 -40.757L0 2.71392ZM10.517 13L53.2397 56.5405L10.5862 98.3928L-32.135 56.6097L10.517 13ZM21 2.71392L64.0626 -40.4904L107.75 3.05384L63.7227 46.2544L21 2.71392ZM18.2771 0L-23.9331 -44.0374L19.1105 -85.295L61.3397 -43.2043L18.2771 0ZM10.517 7.43814L52.7272 51.4756L10.517 91.9344L-31.6932 51.4756L10.517 7.43814ZM45.5503 43.471L42.7934 46.1849L-42.7934 -40.757L-40.0365 -43.471L45.5503 43.471ZM42.6521 -40.8957L53.1691 -30.6097L-32.135 56.6097L-42.6521 46.3236L42.6521 -40.8957ZM-32.2057 -30.5405L-21.7227 -40.8266L63.7227 46.2544L53.2397 56.5405L-32.2057 -30.5405ZM-22.0626 45.9183L-24.7854 43.2043L61.3397 -43.2043L64.0626 -40.4904L-22.0626 45.9183ZM60.4874 44.0374L52.7272 51.4756L-31.6932 -36.5993L-23.9331 -44.0374L60.4874 44.0374ZM-31.6932 51.4756L-39.4533 44.0374L44.9671 -44.0374L52.7272 -36.5993L-31.6932 51.4756Z" fill="black" mask="url(#path-1-inside-1_1462_44)"/>
</svg>
