<svg width="0" height="0" class="hidden">
    <symbol xmlns="http://www.w3.org/2000/svg" viewBox="0 0 33 26" id="house">
        <path
            d="M27.9686 19.2105C27.9686 20.8645 27.9724 22.5186 27.9686 24.1733C27.9686 25.1159 27.5165 25.7307 26.6808 25.9555C26.5676 25.9841 26.4512 25.998 26.3344 25.9971C24.5311 26.0001 22.7278 26.0001 20.9245 25.9971C19.8711 25.9971 19.1706 25.2959 19.1661 24.2348C19.1597 22.7619 19.1661 21.2891 19.1629 19.8162C19.1571 18.3255 18.3426 17.2753 16.9453 16.9397C15.3693 16.5632 13.6551 17.8894 13.6403 19.5127C13.6288 21.0733 13.6403 22.6345 13.6314 24.1951C13.6269 25.1166 13.1569 25.7416 12.3186 25.9606C12.2156 25.9861 12.1097 25.9986 12.0036 25.9977C10.1362 25.9977 8.26892 26.0028 6.4016 25.9977C5.65877 25.9977 4.96269 25.3695 4.86472 24.6273C4.83411 24.3951 4.81849 24.1611 4.81797 23.9268C4.81797 20.853 4.84743 17.7792 4.7994 14.7055C4.78147 13.5771 5.18362 12.8554 6.16146 12.2721C8.82284 10.6807 11.4304 8.99977 14.0591 7.35466C14.5176 7.06713 14.9736 6.77833 15.4359 6.49529C16.0648 6.11427 16.7058 6.09249 17.3353 6.48504C19.8605 8.05779 22.3826 9.63395 24.9019 11.2135C25.596 11.6477 26.2883 12.0851 26.9907 12.5051C27.6683 12.9092 27.9756 13.4977 27.9711 14.279C27.9628 15.9234 27.9686 17.5673 27.9686 19.2105Z">
        </path>
        <path
            d="M31.1266 12.5698C30.8308 12.4667 30.5054 12.4123 30.2448 12.2496C28.1194 10.9433 26.0056 9.61708 23.8892 8.296C21.4647 6.78302 19.0416 5.26748 16.6197 3.74938C16.4487 3.64244 16.3264 3.6514 16.1593 3.75642C11.6929 6.55355 7.22441 9.34727 2.75378 12.1376C2.15311 12.5141 1.5422 12.664 0.891586 12.3201C-0.282851 11.7002 -0.298857 10.1198 0.854447 9.39871C3.85394 7.52329 6.85385 5.6485 9.85419 3.77435C11.701 2.62169 13.5523 1.47543 15.3953 0.316361C16.06 -0.10244 16.7113 -0.105002 17.3696 0.306115C22.2099 3.32567 27.049 6.34629 31.8867 9.36798C32.7359 9.8982 33.0093 10.7665 32.5911 11.6163C32.3388 12.1369 31.774 12.4853 31.1266 12.5698Z">
        </path>
    </symbol>
    <symbol xmlns="http://www.w3.org/2000/svg" viewBox="0 0 27 27" id="human">
        <g clip-path="url(#clip0_1033_5554)">
            <path
                d="M0 27.0039C0.04274 26.4206 0.0660526 25.88 0.12822 25.3434C0.302192 23.8565 0.730672 22.4108 1.39488 21.0695C1.94755 19.94 2.65649 18.894 3.50079 17.9624C4.79198 16.5318 6.37192 15.3919 8.13614 14.618C8.30709 14.5441 8.42366 14.5597 8.57131 14.6608C9.79499 15.5208 11.2237 16.0426 12.7132 16.1735C14.652 16.3446 16.4627 15.9363 18.1295 14.9097C18.2616 14.828 18.4015 14.758 18.5181 14.6569C18.6346 14.5558 18.7551 14.5597 18.9027 14.6258C21.2146 15.6524 23.1068 17.1924 24.5599 19.2651C26.1093 21.4628 26.9598 24.0773 27 26.7667V27.0039H0Z">
            </path>
            <path
                d="M6.12717 7.41594C6.09608 3.36769 9.457 -0.06224 13.6611 0.00386973C17.6747 0.0622019 21.0162 3.37547 20.9579 7.54038C20.8997 11.5264 17.6592 14.8552 13.5056 14.8552C9.43369 14.8513 6.12717 11.5225 6.12717 7.41594Z">
            </path>
        </g>
        <defs>
            <clipPath id="clip0_1033_5554">
                <rect width="27" height="27" fill="white"></rect>
            </clipPath>
        </defs>
    </symbol>
    <symbol xmlns="http://www.w3.org/2000/svg" viewBox="0 0 31 27" id="history">
        <g>
            <path
                d="M0 13.2837H4.41136C4.52576 9.07691 6.1369 5.58423 9.40685 2.92354C11.8075 0.970066 14.5878 0.0201939 17.6827 0.000260453C23.7199 -0.0378731 29.0994 4.11522 30.5822 9.95398C32.092 15.8985 29.4174 22.0571 24.0501 24.963C18.773 27.823 12.3553 26.7475 8.38765 22.7157L10.4737 20.6418C12.4991 22.597 14.9692 23.637 17.8482 23.6058C20.3945 23.5772 22.6427 22.7053 24.5545 21.0162C26.3133 19.4709 27.4923 17.3719 27.8968 15.0659C28.3013 12.7599 27.9071 10.3849 26.7793 8.33331C24.3881 3.99042 19.4126 1.96414 14.671 3.41755C10.1054 4.81636 7.35891 9.03358 7.40398 13.2785H11.7373L5.84397 19.1563C5.71917 19.0228 5.56316 18.8443 5.3959 18.677C3.68451 16.9639 1.97197 15.2517 0.258269 13.5403C0.177791 13.4698 0.092978 13.4043 0.0043323 13.3444L0 13.2837Z">
            </path>
            <path
                d="M23.6183 16.7209C23.2647 17.3181 22.9172 17.9048 22.5627 18.502C22.4578 18.4439 22.3694 18.398 22.2836 18.3477L16.4856 14.9079C16.3478 14.8264 16.2256 14.7631 16.2256 14.5508C16.236 12.2212 16.2325 9.89157 16.2334 7.56196C16.2334 7.51342 16.2429 7.46489 16.2499 7.39642H18.4555V7.76303C18.4555 9.62897 18.4555 11.4949 18.4503 13.36C18.4416 13.4529 18.4619 13.5463 18.5085 13.6271C18.555 13.708 18.6256 13.7725 18.7103 13.8115C20.2495 14.7103 21.781 15.6255 23.315 16.5355C23.4094 16.5918 23.5056 16.6499 23.6183 16.7209Z">
            </path>
        </g>
        <defs>
            <filter id="filter0_i_1056_324" x="0" y="0" width="32" height="27.5723" filterUnits="userSpaceOnUse"
                color-interpolation-filters="sRGB">
                <feFlood flood-opacity="0" result="BackgroundImageFix"></feFlood>
                <feBlend mode="normal" in="SourceGraphic" in2="BackgroundImageFix" result="shape"></feBlend>
                <feColorMatrix in="SourceAlpha" type="matrix" values="0 0 0 0 0 0 0 0 0 0 0 0 0 0 0 0 0 0 127 0"
                    result="hardAlpha"></feColorMatrix>
                <feOffset dx="1" dy="1"></feOffset>
                <feGaussianBlur stdDeviation="0.5"></feGaussianBlur>
                <feComposite in2="hardAlpha" operator="arithmetic" k2="-1" k3="1"></feComposite>
                <feColorMatrix type="matrix" values="0 0 0 0 0 0 0 0 0 0 0 0 0 0 0 0 0 0 0.3 0"></feColorMatrix>
                <feBlend mode="normal" in2="shape" result="effect1_innerShadow_1056_324"></feBlend>
            </filter>
        </defs>
    </symbol>
    <symbol xmlns="http://www.w3.org/2000/svg" viewBox="0 0 34 25" id="car">
        <path
            d="M3.52582 7.60643L2.43643 7.37427C1.94682 7.28874 1.40825 7.28874 1.2736 6.65336C1.13896 6.01798 1.49392 5.60253 2.14266 5.37038C2.63844 5.19773 3.15142 5.07892 3.6727 5.01603C4.13784 4.95493 4.26024 5.126 4.17456 5.59031L3.91751 6.86108L4.03991 6.92217C4.1256 6.78776 4.23576 6.66558 4.32144 6.51895L6.89191 2.42563C7.65081 1.21596 8.7402 0.60501 10.1601 0.433946C14.8848 -0.140341 19.5974 -0.176997 24.3099 0.519479C25.3748 0.678325 26.2194 1.16708 26.7947 2.04684C27.725 3.42757 28.594 4.84496 29.4998 6.23791L29.916 6.92217L30.0629 6.88552C29.9894 6.47007 29.916 6.05463 29.8303 5.65141C29.7446 5.24819 29.8425 4.94271 30.3566 5.02824C30.9234 5.10703 31.4783 5.25476 32.0091 5.46812C32.2784 5.56588 32.5232 5.87135 32.6456 6.15238C32.8904 6.71445 32.6333 7.15433 32.0213 7.28874C31.4093 7.42314 31.0421 7.48424 30.4913 7.58199C31.1767 8.38844 31.8132 9.08491 32.4008 9.83027C32.9883 10.5756 33.6003 11.5653 33.8084 12.6284C33.8476 12.776 33.8681 12.9278 33.8696 13.0805C33.9186 15.7442 33.9553 18.4201 33.992 21.0838C33.992 21.1694 34.0165 21.2794 33.9798 21.3405C33.5881 22.0125 33.7227 22.7823 33.5636 23.5032C33.4824 23.8999 33.271 24.2583 32.9628 24.5216C32.6547 24.785 32.2674 24.9383 31.8622 24.9572C30.4913 25.0061 29.1081 25.0061 27.725 24.9694C27.015 24.9572 26.5254 24.3707 26.4887 23.662V23.0633H7.49169C7.49169 23.2466 7.50393 23.4421 7.49169 23.6376C7.46721 24.3707 7.00208 24.945 6.2799 24.9694C4.8845 25.0061 3.4891 25.0183 2.0937 24.9572C1.06551 24.8961 0.367817 24.0164 0.343336 22.9167C0.331096 22.4646 0.392296 22.0003 0.0740471 21.597C-0.0116352 21.4993 0.000604366 21.3038 0.000604366 21.1572C0.0373254 18.4568 0.061806 15.7564 0.123008 13.0438C0.147488 12.103 0.575901 11.2599 1.11448 10.5145C1.65305 9.76917 2.43643 8.87719 3.10965 8.07074C3.20757 7.93634 3.32998 7.82637 3.52582 7.60643ZM16.9657 6.58004H27.7862C28.4594 6.58004 28.5573 6.49451 28.2146 5.89579C27.5046 4.62502 26.758 3.36648 25.9746 2.14459C25.6563 1.6314 25.13 1.39924 24.5057 1.35036C19.5107 0.971591 14.4941 0.971591 9.4991 1.35036C8.8626 1.39924 8.32403 1.64362 7.9813 2.16903C7.2224 3.39092 6.47574 4.62502 5.77804 5.88357C5.42307 6.50673 5.521 6.58004 6.23094 6.58004H16.9657ZM17.0514 13.3371C14.8481 13.4348 12.6571 13.5081 10.4538 13.6181C9.38894 13.6792 8.60556 14.2168 8.1037 15.1699C7.7977 15.732 7.82218 16.2085 8.37299 16.5506C8.92381 16.8928 9.59703 17.2227 10.258 17.3449C11.3596 17.5648 12.4857 17.6381 13.5996 17.7114C16.9902 17.9069 20.3808 17.8947 23.7346 17.3571C24.3589 17.2593 24.9709 16.9661 25.5095 16.6484C26.048 16.3307 26.2194 15.732 25.8277 15.0722C25.3259 14.1924 24.5792 13.6792 23.5755 13.6303C21.3967 13.5081 19.2179 13.4348 17.0514 13.3371ZM26.9293 20.7539L26.6111 20.5218C25.6074 19.8375 24.4935 19.5443 23.2817 19.5443H11.4698C10.8238 19.5403 10.1781 19.5729 9.53582 19.642C8.65452 19.752 7.88338 20.1186 7.08776 20.7417L26.9293 20.7539ZM1.3348 12.775C1.59185 13.166 1.75097 13.6548 2.0937 13.8747C3.06069 14.4857 4.10112 14.9866 5.11706 15.5365C5.50876 15.7442 5.81476 15.622 6.04733 15.3043C6.2799 14.9866 6.72055 14.3635 7.05104 13.8869C7.25912 13.5937 7.19792 13.4104 6.84295 13.276L2.42419 11.602C2.27731 11.5531 1.99578 11.5776 1.93458 11.6753C1.70653 12.0259 1.50601 12.3935 1.3348 12.775ZM32.6456 12.7628C32.4783 12.398 32.2903 12.0431 32.0825 11.6998C32.0253 11.6478 31.9569 11.6098 31.8826 11.5886C31.8083 11.5674 31.7301 11.5636 31.6541 11.5776C30.1241 12.1396 28.594 12.7261 27.0762 13.3004C26.8069 13.4104 26.7335 13.5937 26.9049 13.8258C27.2598 14.339 27.6026 14.8767 27.9942 15.3532C28.1289 15.512 28.4839 15.6709 28.6552 15.6098C29.8425 15.1577 31.0421 14.6812 31.9968 13.8014C32.2661 13.5448 32.413 13.1416 32.6456 12.7628ZM4.248 17.8825C3.03621 17.9803 2.50987 18.4201 2.32627 19.5931C2.25283 20.0452 2.47315 20.4729 2.92605 20.5829C3.79511 20.815 4.66417 20.9372 5.39859 20.1919C5.7046 19.8864 6.07181 19.6298 6.41454 19.3366C6.75727 19.0433 6.79399 18.6645 6.2799 18.4812C5.7658 18.2979 4.92122 18.078 4.248 17.8825ZM29.9894 20.7662C30.3077 20.7295 30.6626 20.7539 30.9319 20.6195C31.2012 20.4851 31.5317 20.2285 31.6296 19.9597C31.8989 19.2388 31.189 18.1147 30.4178 18.0169C29.465 17.904 28.4997 18.0695 27.6393 18.4934C27.2109 18.7012 27.1864 19.0066 27.5658 19.3243C27.9352 19.6723 28.3278 19.9948 28.7409 20.2896C29.1081 20.534 29.9649 20.8028 29.9894 20.7662Z">
        </path>
    </symbol>
    <symbol xmlns="http://www.w3.org/2000/svg" viewBox="0 0 26 26" id="dis">
        <path
            d="M12.241 0L14.1439 1.78684L15.6406 0.742582C16.4296 0.197248 17.2418 0.44091 17.6247 1.31112C17.7408 1.58959 17.8452 1.87966 17.9612 2.16973C18.0772 2.45981 18.1817 2.73827 18.3209 3.07475L20.0033 2.70347C21.0592 2.47141 21.7437 3.02835 21.7321 4.09581V5.85944L23.4842 6.18432C24.4704 6.35836 24.8997 7.17056 24.4936 8.11039L23.7626 9.72319L25.1782 10.605C26.1992 11.2664 26.2688 12.1366 25.387 12.972L24.1803 14.1091L25.2478 15.571C25.7931 16.36 25.5495 17.2418 24.6793 17.6131C24.1339 17.8568 23.577 18.054 22.9388 18.3093C23.0549 18.8662 23.1709 19.4116 23.2985 19.9685C23.5538 21.0824 22.9968 21.7669 21.8482 21.7437C21.4421 21.7321 21.036 21.7205 20.6415 21.6741C20.247 21.6277 20.0845 21.7553 20.0381 22.1498C19.9861 22.6263 19.9047 23.099 19.7945 23.5654C19.6088 24.4124 18.8546 24.8185 18.0424 24.5168C17.7292 24.4008 17.4391 24.2616 17.1374 24.1339L16.2672 23.7626C15.9191 24.308 15.5942 24.8185 15.2577 25.329C14.7356 26.118 13.819 26.1876 13.146 25.5147L11.8929 24.1919L10.4078 25.2246C9.54914 25.7931 8.74855 25.5379 8.38886 24.598C8.19161 24.0875 7.98276 23.5654 7.78551 23.0433L7.66948 22.9156L6.02188 23.2869C4.8848 23.519 4.22343 22.962 4.26985 21.8018C4.28145 21.4189 4.26985 21.0244 4.31626 20.6531C4.36267 20.2818 4.17702 20.0381 3.75932 20.0033C3.31878 19.9524 2.88116 19.8789 2.4482 19.7829C1.56639 19.6088 1.14868 18.8314 1.48516 17.996C1.70562 17.4507 1.96088 16.9053 2.19294 16.36C2.19882 16.3177 2.19882 16.2747 2.19294 16.2324C1.46196 15.5942 0.336483 15.4086 0 14.3179V13.8654L1.77523 11.8117C1.636 11.6145 1.45036 11.3708 1.27631 11.1155C1.10227 10.8603 0.928227 10.6166 0.742582 10.3729C0.266865 9.75799 0.510525 8.57451 1.33433 8.37726C1.93768 8.22642 2.49461 7.91314 3.10956 7.65788C2.95872 7.00812 2.79629 6.40477 2.69186 5.77822C2.51782 4.8616 3.06315 4.23504 3.99138 4.24664C4.4671 4.25825 4.95441 4.25825 5.43013 4.30466C5.90585 4.35107 5.94066 4.18863 5.98707 3.84054C6.03348 3.49246 6.13791 2.93552 6.21913 2.48301C6.40477 1.53158 7.18216 1.11387 8.07558 1.49677C8.41206 1.6476 8.77175 1.76363 9.07343 1.96088C9.59556 2.30897 9.87402 2.14653 10.1757 1.636C10.4774 1.12548 10.779 0.278468 11.5564 0H12.241ZM20.5602 5.20968C20.5835 5.02403 20.6067 4.69915 20.6183 4.37427C20.6299 4.0494 20.4674 3.72452 19.9917 3.85215C19.516 3.97978 18.8662 4.10741 18.3093 4.25825C17.7524 4.40908 17.5087 4.30466 17.3463 3.75932C17.1838 3.21399 16.9518 2.68026 16.7545 2.14653C16.5573 1.6128 16.3136 1.6128 15.9191 1.89127C15.5246 2.16973 14.9445 2.57583 14.4688 2.93552C13.993 3.29521 13.7958 3.17918 13.4941 2.80789C13.1924 2.4366 12.7747 2.00729 12.4034 1.6128C12.0322 1.2183 11.7537 1.13708 11.4056 1.69402L10.4542 3.21399C10.2569 3.55047 10.0249 3.6549 9.64197 3.46925C9.25907 3.28361 8.52809 2.97033 7.97116 2.69186C7.41422 2.41339 7.29819 2.61064 7.21697 3.08636C7.13575 3.56207 7.01972 4.25825 6.9501 4.84999C6.88049 5.44174 6.70645 5.47654 6.26554 5.44173C5.82463 5.40693 5.11686 5.36052 4.53671 5.33731C3.95657 5.3141 3.73612 5.48815 3.87535 6.1147C4.01458 6.74126 4.13061 7.28659 4.30466 7.85513C4.4787 8.42367 4.28145 8.47008 3.91016 8.59771L2.23935 9.23587C1.60119 9.47953 1.55478 9.61876 1.97248 10.1873C2.39019 10.7558 2.59904 11.0691 2.93552 11.4868C3.272 11.9045 3.20238 12.1366 2.8775 12.4383C2.55262 12.7399 1.98409 13.2853 1.54318 13.7146C1.10227 14.1439 1.2183 14.3179 1.64761 14.5732C2.07691 14.8284 2.58744 15.1881 3.07475 15.4434C3.56207 15.6987 3.6781 16.0119 3.39963 16.5109C3.14964 16.9661 2.92498 17.4348 2.72667 17.9148C2.4482 18.5181 2.54102 18.6922 3.20239 18.8082C3.86375 18.9242 4.30466 18.9939 4.86159 19.0635C5.41853 19.1331 5.47654 19.3071 5.44173 19.748C5.40693 20.189 5.38372 20.8967 5.34891 21.4769C5.3141 22.057 5.47654 22.2659 6.1263 22.115C6.77606 21.9642 7.21697 21.883 7.7507 21.7321C8.28443 21.5813 8.50489 21.6857 8.64412 22.2078C8.78336 22.73 9.05022 23.2869 9.22426 23.8439C9.39831 24.4008 9.67678 24.366 10.0597 24.1107C10.4426 23.8555 11.0923 23.4378 11.5796 23.0549C12.067 22.672 12.2178 22.8344 12.5079 23.1709C12.7979 23.5074 13.3549 24.0643 13.7842 24.5052C14.2135 24.9461 14.3063 24.7837 14.5268 24.424C14.8632 23.8671 15.2113 23.3217 15.5478 22.7532C15.7567 22.4051 16.0119 22.3355 16.3716 22.5211C16.917 22.7996 17.4739 23.0549 18.0308 23.3217C18.5878 23.5886 18.6922 23.4842 18.7966 22.8924C18.901 22.3007 18.9939 21.6741 19.0867 21.0708C19.1795 20.4674 19.3535 20.4326 19.8293 20.4906C20.305 20.5486 21.0592 20.5486 21.6625 20.6067C22.2659 20.6647 22.2659 20.4674 22.1614 20.0381C22.057 19.6088 21.9294 18.8662 21.7553 18.2977C21.5813 17.7292 21.7785 17.4971 22.2775 17.3347C22.7764 17.1722 23.3913 16.9053 23.9483 16.7081C24.5052 16.5109 24.424 16.302 24.1687 15.9539C23.9135 15.6058 23.4494 14.9561 23.0665 14.4804C22.6836 14.0046 22.8344 13.7842 23.1709 13.4709L24.3892 12.3338C24.8649 11.8697 24.8533 11.7537 24.2848 11.3824C23.7162 11.0111 23.2869 10.7326 22.7648 10.431C22.4399 10.2453 22.3587 10.0249 22.5327 9.67677C22.7068 9.32869 22.9504 8.77175 23.1709 8.31924C23.6698 7.35621 23.4145 7.14735 22.5211 7.13575C22.3471 7.12415 22.1846 7.06614 22.0106 7.04293C20.5138 6.85728 20.5138 6.85728 20.5602 5.20968Z">
        </path>
        <path
            d="M20.5606 5.20969C20.5141 6.85729 20.5141 6.8573 22.0109 7.04294C22.185 7.06615 22.3474 7.12416 22.5214 7.13576C23.4149 7.14737 23.6701 7.35622 23.1712 8.31925C22.9507 8.77177 22.7651 9.23588 22.533 9.67679C22.301 10.1177 22.4402 10.2453 22.7651 10.431C23.2872 10.7326 23.7861 11.0575 24.2851 11.3824C24.784 11.7073 24.8652 11.8697 24.3895 12.3338L23.1712 13.4709C22.8347 13.7842 22.7651 14.0975 23.0668 14.4804C23.3684 14.8633 23.7978 15.4666 24.169 15.9539C24.5403 16.4412 24.3663 16.5573 23.9486 16.7081C23.5309 16.8589 22.8347 17.149 22.2778 17.3347C21.7208 17.5203 21.6048 17.7756 21.7557 18.2977C21.9065 18.8198 22.0341 19.458 22.1618 20.0381C22.2894 20.6183 22.1269 20.6415 21.6628 20.6067C21.1987 20.5719 20.4329 20.5603 19.8296 20.4906C19.2262 20.421 19.145 20.6299 19.087 21.0708C19.029 21.5117 18.9014 22.2891 18.7969 22.8924C18.6925 23.4958 18.5533 23.5654 18.0311 23.3217C17.509 23.0781 16.9173 22.7996 16.3719 22.5211C16.0122 22.3355 15.757 22.4051 15.5481 22.7532C15.2116 23.3217 14.8636 23.8671 14.5271 24.424C14.3066 24.7837 14.063 24.7953 13.7845 24.5052C13.506 24.2152 12.9143 23.635 12.5082 23.1709C12.1021 22.7068 11.9512 22.7648 11.58 23.0549C11.2087 23.3449 10.5705 23.7626 10.06 24.1107C9.54946 24.4588 9.38702 24.3312 9.22458 23.8439C9.06214 23.3565 8.79527 22.7648 8.64443 22.2079C8.4936 21.6509 8.22673 21.6045 7.75101 21.7321C7.2753 21.8598 6.67195 21.999 6.12661 22.115C5.58128 22.2311 5.31442 22.1266 5.34923 21.4769C5.38403 20.8271 5.39564 20.3166 5.44205 19.7481C5.48846 19.1795 5.268 19.1215 4.8619 19.0635C4.45581 19.0055 3.75964 18.9011 3.2027 18.8082C2.64576 18.7154 2.44851 18.5182 2.72698 17.9148C2.92529 17.4348 3.14995 16.9661 3.39995 16.5109C3.67841 16.0119 3.56239 15.7103 3.07507 15.4434C2.58775 15.1765 2.13524 14.8517 1.64792 14.5732C1.1606 14.2947 1.1838 14.0511 1.54349 13.7146C1.90318 13.3781 2.42531 12.856 2.87782 12.4383C3.33033 12.0206 3.2259 11.8349 2.93583 11.4868C2.64576 11.1387 2.28607 10.6282 1.9728 10.1873C1.65952 9.74641 1.6015 9.47954 2.23966 9.23588L3.91047 8.59772C4.28176 8.47009 4.421 8.26124 4.30497 7.85514C4.18894 7.44904 4.0149 6.69486 3.87566 6.11471C3.73643 5.53457 3.88727 5.31412 4.53703 5.33732C5.18679 5.36053 5.69731 5.39534 6.26585 5.44175C6.83439 5.48816 6.8924 5.26771 6.95042 4.85C7.00843 4.4323 7.13606 3.67812 7.21728 3.08637C7.2985 2.49462 7.50736 2.45982 7.97147 2.69187C8.43558 2.92393 9.09695 3.17919 9.64228 3.46926C10.1876 3.75933 10.2572 3.55048 10.4545 3.214L11.4059 1.69403C11.754 1.13709 11.9396 1.12549 12.4038 1.61281C12.8679 2.10013 13.1579 2.3902 13.4944 2.8079C13.8309 3.2256 14.0862 3.22561 14.4691 2.93553C14.852 2.64546 15.4437 2.23936 15.9194 1.89128C16.3951 1.54319 16.5924 1.65922 16.7548 2.14654C16.9173 2.63386 17.1841 3.214 17.3466 3.75933C17.509 4.30467 17.8223 4.39749 18.3096 4.25826C18.7969 4.11902 19.4351 4.003 19.992 3.85216C20.549 3.70132 20.6418 3.92178 20.6186 4.37429C20.5954 4.8268 20.5838 5.02404 20.5606 5.20969ZM18.4372 15.5942C18.4256 15.4086 18.414 15.1417 18.3792 14.8749C18.24 13.8654 17.509 13.1228 16.546 13.0068C15.5829 12.8908 14.7011 13.3317 14.3298 14.4107C14.0078 15.2887 14.0369 16.2571 14.411 17.1142C14.5496 17.4223 14.7624 17.6911 15.0304 17.8967C15.2985 18.1024 15.6133 18.2383 15.9467 18.2923C16.2802 18.3463 16.6218 18.3168 16.941 18.2064C17.2603 18.096 17.5471 17.9081 17.7759 17.6595C18.298 17.1026 18.4372 16.418 18.4372 15.5942ZM7.57697 10.1641C7.60018 10.5934 7.61178 10.8371 7.64659 11.0923C7.83223 12.1714 8.5052 12.8676 9.45663 12.972C10.4081 13.0764 11.3131 12.6007 11.6844 11.6261C11.9952 10.8083 11.9993 9.90563 11.696 9.08504C11.5575 8.66038 11.2844 8.29244 10.9179 8.037C10.5515 7.78155 10.1118 7.65254 9.66548 7.66949C8.76046 7.6927 8.0991 8.16842 7.78582 9.09664C7.69107 9.44708 7.62127 9.8038 7.57697 10.1641ZM9.78151 18.2629C10.4545 18.4369 10.8142 18.2861 11.1158 17.6828C12.5198 14.8749 13.9817 12.1134 15.4205 9.3287L16.2327 7.72751C15.6177 7.57667 15.2348 7.63468 14.968 8.22643C14.5967 9.09664 14.121 9.90884 13.6801 10.7442L9.78151 18.2629Z">
        </path>
        <path
            d="M18.4369 15.5942C18.4369 16.418 18.2977 17.1026 17.7756 17.6595C17.5468 17.908 17.2599 18.0959 16.9407 18.2064C16.6215 18.3168 16.2798 18.3463 15.9464 18.2923C15.613 18.2382 15.2981 18.1023 15.0301 17.8967C14.7621 17.6911 14.5493 17.4222 14.4107 17.1142C14.0366 16.2571 14.0075 15.2887 14.3295 14.4107C14.7008 13.3317 15.4434 12.8791 16.5457 13.0068C17.6479 13.1344 18.2397 13.8654 18.3789 14.8748C18.4137 15.1417 18.4253 15.4086 18.4369 15.5942ZM17.4275 15.5942C17.3463 15.2113 17.3579 14.782 17.1722 14.4803C16.9866 14.1787 16.6037 13.877 16.302 13.877C16.0003 13.877 15.5478 14.1555 15.4202 14.4339C15.0721 15.1881 15.0837 16.0119 15.3738 16.8009C15.5246 17.1954 15.8263 17.4623 16.302 17.4507C16.7777 17.4391 17.091 17.1838 17.2186 16.7313C17.3463 16.2788 17.3579 15.9771 17.4275 15.5942Z"
            fill="white"></path>
        <path
            d="M7.57617 10.1641C7.62048 9.80381 7.69027 9.4471 7.78503 9.09666C8.0983 8.16843 8.75966 7.69272 9.66468 7.66951C10.111 7.65255 10.5507 7.78157 10.9172 8.03702C11.2836 8.29246 11.5567 8.6604 11.6952 9.08506C11.9985 9.90565 11.9944 10.8083 11.6836 11.6261C11.3123 12.6007 10.4769 13.088 9.45583 12.972C8.43478 12.856 7.83144 12.1714 7.64579 11.0924C7.61098 10.8371 7.59938 10.5934 7.57617 10.1641ZM8.62043 10.3614C8.66085 10.7414 8.73067 11.1177 8.82928 11.4868C8.96852 11.8929 9.3166 12.2178 9.74591 12.125C10.1752 12.0322 10.4769 11.8117 10.6161 11.5217C10.9758 10.7443 10.9294 9.90886 10.6161 9.10826C10.4537 8.69056 10.0824 8.4237 9.66468 8.55133C9.32047 8.67354 9.02932 8.91139 8.84089 9.22429C8.66684 9.53757 8.67844 9.96688 8.62043 10.3614Z"
            fill="white"></path>
        <path
            d="M9.78125 18.2629L13.6798 10.7442C14.1207 9.90882 14.5964 9.09662 14.9677 8.22641C15.2346 7.63466 15.6175 7.57665 16.2324 7.72749L15.4202 9.32868C13.9815 12.1134 12.5195 14.8748 11.1156 17.6827C10.8139 18.2861 10.4542 18.4369 9.78125 18.2629Z"
            fill="white"></path>
        <path
            d="M17.4272 15.5942C17.3576 15.9771 17.3112 16.36 17.2184 16.7313C17.1255 17.1026 16.7891 17.4507 16.3017 17.4507C15.8144 17.4507 15.5243 17.1954 15.3735 16.8009C15.0834 16.0119 15.0718 15.1881 15.4199 14.4339C15.5476 14.1555 16.0117 13.8654 16.3017 13.877C16.5918 13.8886 16.9979 14.1903 17.1719 14.4803C17.346 14.7704 17.346 15.2113 17.4272 15.5942Z">
        </path>
        <path
            d="M8.62109 10.3614C8.67911 9.96686 8.66751 9.53755 8.84155 9.22428C9.02999 8.91137 9.32114 8.67353 9.66535 8.55131C10.0831 8.42368 10.4543 8.69055 10.6168 9.10825C10.9301 9.90884 10.9765 10.7443 10.6168 11.5216C10.4776 11.8117 10.0715 12.067 9.74657 12.125C9.42169 12.183 8.96918 11.8929 8.82995 11.4868C8.73134 11.1176 8.66151 10.7414 8.62109 10.3614Z">
        </path>
    </symbol>
</svg>