<svg width="25" height="25" viewBox="0 0 25 25" fill="none" xmlns="http://www.w3.org/2000/svg">
<path id="Vector" d="M25 11.6056V13.1049C24.9883 13.1532 24.9809 13.2025 24.9778 13.2521C24.9528 14.3404 24.7138 15.3872 24.3803 16.4172C23.5717 18.9244 22.0544 20.9345 19.9786 22.5116C18.0362 23.9859 15.8187 24.7911 13.3789 24.966C11.6143 25.0937 9.89144 24.8633 8.23247 24.2497C6.5735 23.6361 5.07848 22.7254 3.80577 21.476C1.54102 19.252 0.271086 16.5616 0.0376632 13.3992C-0.0540386 12.147 0.0154325 10.8976 0.315547 9.66486C1.10474 6.43119 2.88134 3.89165 5.64537 2.04622C8.18801 0.355353 11.0085 -0.249918 14.0291 0.0915881C15.991 0.313706 17.8111 0.980059 19.4451 2.0962C22.4296 4.13783 24.234 6.94114 24.8583 10.5061C24.9222 10.8698 24.9528 11.2391 25 11.6056ZM9.38847 12.5052C9.31066 13.1216 9.54686 16.7088 9.69692 17.178H15.3296C15.5241 15.6232 15.6436 14.0711 15.6325 12.5052H9.38847ZM7.80731 12.508L7.71005 12.4996H1.66884C1.57714 12.4996 1.5438 12.5274 1.54935 12.619C1.57158 12.9411 1.57158 13.2659 1.61049 13.588C1.75499 14.8041 2.09678 15.9674 2.58864 17.0864C2.63032 17.178 2.68034 17.1946 2.76926 17.1946H8.0046C8.05462 17.1946 8.10186 17.1891 8.1491 17.1863C7.93376 15.6359 7.81958 14.0732 7.80731 12.508ZM17.2026 12.5052C17.1899 14.0694 17.0767 15.6311 16.8636 17.1808L16.9719 17.1891H22.2628C22.3462 17.1891 22.3879 17.1641 22.4157 17.0864C22.6019 16.5727 22.8158 16.0702 22.977 15.551C23.2688 14.607 23.4522 13.6408 23.4605 12.6468C23.4605 12.5385 23.4383 12.4941 23.316 12.4941H17.3582L17.2026 12.5052ZM9.42181 10.9254H15.5881C15.5916 10.8987 15.5925 10.8717 15.5908 10.8449C15.5103 9.88697 15.4297 8.92632 15.3519 7.96843C15.3407 7.84072 15.2907 7.8074 15.1601 7.8074C13.3946 7.8111 11.631 7.8111 9.86921 7.8074C9.72193 7.80462 9.66635 7.84349 9.65524 7.99064C9.58298 8.88467 9.49962 9.77869 9.42459 10.6699C9.41625 10.7532 9.42181 10.8365 9.42181 10.9254ZM8.15466 7.8074H7.99349C6.24837 7.8074 4.50234 7.8074 2.75537 7.8074C2.65255 7.8074 2.61087 7.84905 2.57475 7.93512C2.1996 8.77361 1.94395 9.65375 1.74387 10.5478C1.65495 10.9531 1.66606 10.9115 2.03287 10.9143C3.93082 10.9282 5.82877 10.9282 7.72672 10.9393C7.84621 10.9393 7.84621 10.8782 7.85455 10.7921C7.92402 10.0175 7.99349 9.24561 8.06852 8.47097C8.09075 8.25719 8.12409 8.0434 8.15466 7.8074ZM16.8608 7.84349C16.8614 7.88341 16.8641 7.92327 16.8691 7.96288C16.9636 8.90133 17.0636 9.83977 17.1553 10.7782C17.1664 10.9004 17.1998 10.9393 17.3276 10.9393C18.428 10.9337 19.5312 10.9393 20.6344 10.9365C21.4551 10.9309 22.2749 10.9217 23.0937 10.9087C23.3271 10.9059 23.3355 10.8921 23.2882 10.6672C23.0854 9.72316 22.8186 8.80137 22.4268 7.91568C22.3934 7.83794 22.3518 7.8074 22.2628 7.8074L17.122 7.82961C17.0386 7.82961 16.958 7.83794 16.8608 7.84349ZM12.5035 18.7717V18.755H11.1002C10.7807 18.7578 10.4611 18.7633 10.1443 18.7772C9.96091 18.7828 9.94701 18.805 9.98592 18.9744C10.1916 19.8906 10.4333 20.7957 10.8029 21.662C11.0363 22.2173 11.3281 22.7337 11.7949 23.1307C12.2618 23.5278 12.7286 23.5389 13.2066 23.1391C13.5651 22.842 13.8207 22.4616 14.0236 22.0479C14.5043 21.0706 14.785 20.0266 15.024 18.9716C15.0629 18.805 15.0462 18.7911 14.8767 18.7745H12.5035V18.7717ZM15.0462 6.23869C15.0451 6.20433 15.0423 6.17005 15.0379 6.13596C14.9767 5.86109 14.9211 5.58345 14.8517 5.31135C14.6405 4.48119 14.3959 3.66213 13.993 2.90138C13.779 2.49601 13.5401 2.10453 13.1705 1.813C12.8009 1.52147 12.3201 1.48815 11.9144 1.77691C11.8046 1.85416 11.7031 1.94255 11.6115 2.04067C11.2975 2.36829 11.0669 2.75145 10.8807 3.16236C10.4833 4.0425 10.2193 4.96707 10.0165 5.90829C9.99425 6.0138 9.97758 6.12208 9.95535 6.23869H15.0462ZM14.9767 1.84909C15.0156 1.92961 15.0351 1.97959 15.0629 2.02679C15.3917 2.59661 15.659 3.19971 15.8604 3.82594C16.1049 4.58114 16.3106 5.34745 16.5301 6.11098C16.5523 6.19149 16.569 6.24702 16.6801 6.24702H21.318C21.3569 6.24702 21.3931 6.24147 21.4542 6.23592C20.6233 5.07813 19.6479 4.11192 18.4697 3.35394C17.3999 2.6626 16.2578 2.14062 14.9767 1.84909ZM10.0165 1.84354C8.7249 2.16281 7.49939 2.70597 6.39565 3.44834C5.29413 4.18891 4.3381 5.1253 3.57513 6.21093L3.68628 6.21926L4.8395 6.22759C5.97605 6.23036 7.10982 6.23036 8.24358 6.23592C8.37697 6.23592 8.46589 6.2137 8.48534 6.061C8.49646 5.96938 8.5298 5.88053 8.55481 5.79168C8.89661 4.49229 9.28009 3.20956 9.94423 2.02956C9.97202 1.98236 9.98592 1.92961 10.0165 1.84354ZM14.9684 23.1613C17.6444 22.4727 19.7841 21.0401 21.4125 18.7911C21.3125 18.7828 21.2402 18.7745 21.168 18.7745L16.7107 18.7467C16.5968 18.7467 16.5523 18.7772 16.5273 18.8911C16.2744 20.0266 15.9271 21.1345 15.4547 22.1978C15.313 22.5171 15.1407 22.8225 14.9684 23.1613ZM10.0582 23.1613C10.0109 23.078 9.97758 23.0252 9.94979 22.9669C9.80529 22.6837 9.6469 22.4061 9.51907 22.1145C9.06056 21.0734 8.7271 19.9933 8.47145 18.8855C8.452 18.8022 8.43254 18.7495 8.32417 18.7495L3.79466 18.7772C3.73908 18.7772 3.68072 18.7883 3.59736 18.7967C5.23688 21.0289 7.35991 22.4866 10.0582 23.1613Z" fill="black"/>
</svg>
