<svg width="54" height="54" viewBox="0 0 54 54" fill="none" xmlns="http://www.w3.org/2000/svg">
<g id="&#208;&#151;&#208;&#189;&#208;&#176;&#208;&#186; &#209;&#129;&#208;&#186;&#208;&#184;&#208;&#180;&#208;&#186;&#208;&#184;" filter="url(#filter0_i_84_231)">
<path id="Vector" d="M25.4236 0L29.3757 3.71112L32.4844 1.54228C34.1231 0.409668 35.81 0.915737 36.6052 2.7231C36.8462 3.30146 37.0631 3.90391 37.304 4.50637C37.545 5.10883 37.7619 5.68718 38.0511 6.38603L41.5453 5.61489C43.7383 5.13293 45.1601 6.28964 45.136 8.50668V12.1696L48.7748 12.8444C50.8231 13.2058 51.7148 14.8927 50.8713 16.8447L49.3532 20.1943L52.2931 22.0258C54.4138 23.3994 54.5584 25.2067 52.7269 26.9418L50.2207 29.3034L52.4377 32.3398C53.5703 33.9785 53.0643 35.81 51.2569 36.5811C50.1243 37.0872 48.9676 37.4968 47.6422 38.027C47.8832 39.1837 48.1241 40.3163 48.3892 41.473C48.9194 43.7865 47.7627 45.2083 45.3769 45.1601C44.5335 45.136 43.6901 45.1119 42.8707 45.0155C42.0514 44.9191 41.714 45.1842 41.6176 46.0035C41.5096 46.993 41.3406 47.9748 41.1116 48.9435C40.726 50.7027 39.1596 51.5461 37.4727 50.9195C36.8221 50.6786 36.2196 50.3894 35.5931 50.1243L33.7857 49.3532C33.0628 50.4858 32.388 51.5461 31.6892 52.6064C30.6047 54.2451 28.701 54.3897 27.3033 52.992L24.7007 50.2448L21.6161 52.3895C19.8328 53.5703 18.1701 53.0402 17.423 51.0882C17.0133 50.0279 16.5796 48.9435 16.1699 47.8591L15.9289 47.594L12.507 48.3651C10.1453 48.8471 8.77175 47.6904 8.86814 45.2806C8.89224 44.4853 8.86815 43.666 8.96454 42.8948C9.06093 42.1237 8.67536 41.6176 7.80782 41.5453C6.89284 41.4397 5.98394 41.2869 5.08473 41.0875C3.25326 40.726 2.38572 39.1114 3.08457 37.3763C3.54244 36.2437 4.0726 35.1111 4.55456 33.9785C4.56677 33.8906 4.56677 33.8013 4.55456 33.7134C3.03637 32.388 0.698848 32.0024 0 29.7372V28.7974L3.68702 24.532C3.39785 24.1223 3.01228 23.6163 2.6508 23.0861C2.28933 22.5559 1.92786 22.0499 1.54228 21.5438C0.554258 20.2666 1.06032 17.8086 2.7713 17.3989C4.0244 17.0856 5.18111 16.435 6.45832 15.9048C6.14504 14.5553 5.80767 13.3022 5.59079 12.0009C5.22932 10.0972 6.36193 8.79585 8.28979 8.81995C9.27781 8.84405 10.2899 8.84405 11.278 8.94044C12.266 9.03683 12.3383 8.69946 12.4347 7.97651C12.5311 7.25357 12.748 6.09685 12.9166 5.15702C13.3022 3.18096 14.9168 2.31343 16.7724 3.10867C17.4712 3.42195 18.2183 3.66293 18.8448 4.0726C19.9292 4.79554 20.5076 4.45817 21.1341 3.39785C21.7607 2.33753 22.3872 0.578357 24.0018 0H25.4236ZM42.702 10.8201C42.7502 10.4345 42.7984 9.75978 42.8225 9.08503C42.8466 8.41028 42.5093 7.73553 41.5212 8.00061C40.5332 8.26569 39.1837 8.53077 38.027 8.84405C36.8703 9.15733 36.3642 8.94044 36.0268 7.80782C35.6895 6.67521 35.2075 5.56669 34.7978 4.45817C34.3882 3.34965 33.8821 3.34966 33.0628 3.92801C32.2434 4.50637 31.0385 5.34981 30.0505 6.09685C29.0625 6.8439 28.6528 6.60292 28.0262 5.83177C27.3997 5.06063 26.5321 4.16899 25.761 3.34965C24.9899 2.53031 24.4115 2.36163 23.6886 3.51834L21.7125 6.67521C21.3028 7.37406 20.8209 7.59094 20.0256 7.20537C19.2304 6.8198 17.7122 6.16915 16.5555 5.59079C15.3988 5.01243 15.1578 5.4221 14.9891 6.41013C14.8204 7.39816 14.5794 8.84405 14.4348 10.0731C14.2902 11.3021 13.9288 11.3744 13.013 11.3021C12.0973 11.2298 10.6273 11.1334 9.42241 11.0852C8.21749 11.037 7.75963 11.3985 8.0488 12.6998C8.33798 14.0011 8.57897 15.1337 8.94044 16.3145C9.30191 17.4953 8.89225 17.5917 8.1211 17.8568L4.65095 19.1822C3.32555 19.6882 3.22916 19.9774 4.0967 21.1582C4.96423 22.3391 5.398 22.9897 6.09685 23.8572C6.7957 24.7248 6.65111 25.2067 5.97636 25.8333C5.30161 26.4599 4.12079 27.5925 3.20506 28.4841C2.28933 29.3757 2.53032 29.7372 3.42195 30.2674C4.31358 30.7975 5.3739 31.5446 6.38603 32.0747C7.39815 32.6049 7.63913 33.2556 7.06078 34.2918C6.54156 35.2373 6.07496 36.2107 5.66308 37.2077C5.08472 38.4608 5.27751 38.8222 6.65111 39.0632C8.02471 39.3042 8.94044 39.4488 10.0972 39.5934C11.2539 39.738 11.3744 40.0994 11.3021 41.0152C11.2298 41.9309 11.1816 43.4009 11.1093 44.6058C11.037 45.8107 11.3744 46.2445 12.7239 45.9312C14.0734 45.6179 14.9891 45.4492 16.0976 45.136C17.2061 44.8227 17.664 45.0396 17.9532 46.124C18.2424 47.2084 18.7966 48.3651 19.1581 49.5218C19.5196 50.6786 20.0979 50.6063 20.8932 50.0761C21.6884 49.5459 23.0379 48.6784 24.05 47.8832C25.0621 47.0879 25.3754 47.4253 25.9779 48.1242C26.5803 48.823 27.7371 49.9797 28.6287 50.8954C29.5203 51.8112 29.7131 51.4738 30.171 50.7268C30.8698 49.57 31.5928 48.4374 32.2916 47.2566C32.7254 46.5337 33.2555 46.3891 34.0026 46.7747C35.1352 47.353 36.2919 47.8832 37.4486 48.4374C38.6053 48.9917 38.8222 48.7748 39.0391 47.5458C39.256 46.3168 39.4488 45.0155 39.6416 43.7624C39.8344 42.5093 40.1958 42.437 41.1839 42.5575C42.1719 42.678 43.7383 42.678 44.9914 42.7984C46.2445 42.9189 46.2445 42.5093 46.0276 41.6176C45.8107 40.726 45.5456 39.1837 45.1842 38.0029C44.8227 36.8221 45.2324 36.3401 46.2686 36.0027C47.3048 35.6654 48.582 35.1111 49.7387 34.7014C50.8954 34.2918 50.7268 33.858 50.1966 33.1351C49.6664 32.4121 48.7025 31.0626 47.9073 30.0746C47.112 29.0866 47.4253 28.6287 48.1241 27.978L50.6545 25.6164C51.6425 24.6525 51.6184 24.4115 50.4376 23.6404C49.2568 22.8692 48.3651 22.2909 47.2807 21.6643C46.606 21.2787 46.4373 20.8209 46.7987 20.0979C47.1602 19.375 47.6663 18.2183 48.1241 17.2784C49.1604 15.2783 48.6302 14.8445 46.7746 14.8204C46.4132 14.7963 46.0758 14.6758 45.7143 14.6276C42.6057 14.2421 42.6057 14.242 42.702 10.8201Z" fill="white"/>
<path id="Vector_2" d="M42.7016 10.8199C42.6052 14.2419 42.6052 14.2419 45.7139 14.6274C46.0754 14.6756 46.4127 14.7961 46.7742 14.8202C48.6298 14.8443 49.1599 15.2781 48.1237 17.2783C47.6658 18.2181 47.2803 19.182 46.7983 20.0977C46.3163 21.0135 46.6055 21.2786 47.2803 21.6641C48.3647 22.2907 49.4009 22.9654 50.4371 23.6402C51.4734 24.3149 51.642 24.6523 50.654 25.6162L48.1237 27.9779C47.4249 28.6285 47.2803 29.2792 47.9068 30.0744C48.5334 30.8696 49.425 32.1228 50.1962 33.1349C50.9673 34.147 50.6058 34.388 49.7383 34.7013C48.8708 35.0145 47.4249 35.617 46.2681 36.0026C45.1114 36.3881 44.8704 36.9183 45.1837 38.0027C45.497 39.0871 45.7621 40.4125 46.0272 41.6175C46.2922 42.8224 45.9549 42.8706 44.9909 42.7983C44.027 42.726 42.4365 42.7019 41.1834 42.5573C39.9303 42.4127 39.7616 42.8465 39.6411 43.7622C39.5206 44.6779 39.2556 46.2925 39.0387 47.5456C38.8218 48.7987 38.5326 48.9433 37.4482 48.4372C36.3638 47.9312 35.1348 47.3528 34.0022 46.7745C33.2551 46.3889 32.7249 46.5335 32.2912 47.2564C31.5923 48.4372 30.8694 49.5699 30.1705 50.7266C29.7127 51.4736 29.2066 51.4977 28.6282 50.8953C28.0499 50.2928 26.8209 49.0879 25.9774 48.124C25.134 47.16 24.8207 47.2805 24.0496 47.883C23.2784 48.4854 21.953 49.353 20.8927 50.0759C19.8324 50.7989 19.495 50.5338 19.1576 49.5217C18.8203 48.5095 18.266 47.2805 17.9527 46.1238C17.6395 44.9671 17.0852 44.8707 16.0972 45.1358C15.1091 45.4009 13.856 45.6901 12.7234 45.931C11.5908 46.172 11.0365 45.9551 11.1088 44.6056C11.1811 43.2561 11.2052 42.1958 11.3016 41.015C11.398 39.8342 10.9402 39.7137 10.0967 39.5932C9.25328 39.4727 7.80739 39.2558 6.65067 39.063C5.49396 38.8703 5.08429 38.4606 5.66264 37.2075C6.07452 36.2105 6.54112 35.2371 7.06034 34.2916C7.63869 33.2554 7.39771 32.6288 6.38559 32.0746C5.37346 31.5203 4.43364 30.8455 3.42151 30.2672C2.40939 29.6888 2.45758 29.1828 3.20462 28.4839C3.95167 27.7851 5.03609 26.7007 5.97592 25.8331C6.91575 24.9656 6.69886 24.58 6.09641 23.8571C5.49395 23.1341 4.74691 22.0738 4.09626 21.1581C3.44561 20.2423 3.32511 19.6881 4.65051 19.182L8.12066 17.8566C8.89181 17.5915 9.18098 17.1578 8.94 16.3143C8.69902 15.4709 8.33754 13.9045 8.04836 12.6996C7.75919 11.4947 8.07247 11.0368 9.42197 11.085C10.7715 11.1332 11.8318 11.2055 13.0126 11.3019C14.1934 11.3983 14.3139 10.9404 14.4344 10.0729C14.5549 9.20535 14.82 7.63896 14.9887 6.40995C15.1573 5.18094 15.5911 5.10865 16.555 5.59061C17.519 6.07258 18.8926 6.60273 20.0252 7.20519C21.1578 7.80765 21.3024 7.37388 21.7121 6.67503L23.6881 3.51816C24.4111 2.36145 24.7966 2.33735 25.7606 3.34947C26.7245 4.3616 27.3269 4.96406 28.0258 5.8316C28.7246 6.69913 29.2548 6.69913 30.05 6.09668C30.8453 5.49422 32.0743 4.65078 33.0623 3.92784C34.0503 3.20489 34.46 3.44587 34.7974 4.45799C35.1348 5.47012 35.689 6.67503 36.0264 7.80765C36.3638 8.94026 37.0144 9.13305 38.0266 8.84387C39.0387 8.55469 40.3641 8.31371 41.5208 8.00044C42.6775 7.68716 42.8703 8.14502 42.8221 9.08486C42.7739 10.0247 42.7498 10.4344 42.7016 10.8199ZM38.2916 32.3878C38.2675 32.0023 38.2434 31.448 38.1711 30.8937C37.882 28.7972 36.3638 27.2549 34.3636 27.0139C32.3635 26.7729 30.532 27.6887 29.7609 29.9298C29.0921 31.7534 29.1525 33.7646 29.9296 35.5447C30.2173 36.1845 30.6594 36.7429 31.216 37.17C31.7726 37.597 32.4265 37.8793 33.119 37.9915C33.8115 38.1037 34.5211 38.0424 35.1841 37.8131C35.8471 37.5837 36.4429 37.1935 36.918 36.6773C38.0025 35.5206 38.2916 34.0988 38.2916 32.3878ZM15.7357 21.1099C15.7839 22.0015 15.808 22.5076 15.8803 23.0377C16.2659 25.2789 17.6636 26.7248 19.6396 26.9416C21.6157 27.1585 23.4953 26.1705 24.2665 24.1462C24.9119 22.4478 24.9205 20.573 24.2906 18.8687C24.003 17.9867 23.4357 17.2226 22.6747 16.692C21.9136 16.1615 21.0004 15.8935 20.0734 15.9287C18.1937 15.9769 16.8201 16.965 16.1695 18.8928C15.9727 19.6207 15.8277 20.3615 15.7357 21.1099ZM20.3144 37.9304C21.7121 38.2919 22.4591 37.9786 23.0857 36.7255C26.0015 30.8937 29.0379 25.1584 32.0261 19.3748L33.713 16.0492C32.4358 15.736 31.6405 15.8565 31.0863 17.0855C30.3151 18.8928 29.3271 20.5797 28.4114 22.3148L20.3144 37.9304Z" fill="white"/>
<g id="Vector_3" filter="url(#filter1_d_84_231)">
<path d="M38.2918 32.3882C38.2918 34.0992 38.0027 35.521 36.9182 36.6777C36.4431 37.1939 35.8473 37.5841 35.1843 37.8135C34.5213 38.0428 33.8118 38.1041 33.1192 37.9919C32.4267 37.8797 31.7728 37.5974 31.2162 37.1704C30.6596 36.7433 30.2175 36.1849 29.9298 35.5451C29.1527 33.765 29.0923 31.7537 29.7611 29.9302C30.5322 27.6891 32.0745 26.7492 34.3638 27.0143C36.6532 27.2794 37.8822 28.7976 38.1713 30.8941C38.2436 31.4484 38.2677 32.0026 38.2918 32.3882ZM36.1953 32.3882C36.0266 31.593 36.0507 30.7013 35.6651 30.0748C35.2796 29.4482 34.4843 28.8217 33.8578 28.8217C33.2312 28.8217 32.2914 29.4 32.0263 29.9784C31.3034 31.5448 31.3275 33.2558 31.9299 34.8944C32.2432 35.7138 32.8697 36.268 33.8578 36.2439C34.8458 36.2198 35.4964 35.6897 35.7615 34.7498C36.0266 33.81 36.0507 33.1835 36.1953 32.3882Z" fill="#0F84F0"/>
</g>
<g id="Vector_4" filter="url(#filter2_d_84_231)">
<path d="M15.7358 21.11C15.8279 20.3616 15.9728 19.6208 16.1696 18.8929C16.8203 16.9651 18.1939 15.9771 20.0735 15.9289C21.0005 15.8936 21.9138 16.1616 22.6748 16.6921C23.4358 17.2227 24.0031 17.9869 24.2907 18.8688C24.9206 20.5731 24.9121 22.4479 24.2666 24.1464C23.4955 26.1706 21.7604 27.1827 19.6398 26.9417C17.5191 26.7008 16.266 25.279 15.8804 23.0378C15.8081 22.5077 15.784 22.0016 15.7358 21.11ZM17.9047 21.5196C17.9886 22.3089 18.1337 23.0904 18.3385 23.8572C18.6276 24.7006 19.3506 25.3754 20.2422 25.1826C21.1338 24.9898 21.7604 24.5319 22.0496 23.9295C22.7966 22.3149 22.7002 20.5798 22.0496 18.917C21.7122 18.0495 20.9411 17.4952 20.0735 17.7603C19.3586 18.0142 18.7539 18.5081 18.3626 19.158C18.0011 19.8087 18.0252 20.7003 17.9047 21.5196Z" fill="#0F84F0"/>
</g>
<path id="Vector_5" d="M36.196 32.388C36.0514 33.1833 35.955 33.9785 35.7623 34.7497C35.5695 35.5208 34.8706 36.2438 33.8585 36.2438C32.8464 36.2438 32.2439 35.7136 31.9306 34.8943C31.3282 33.2556 31.3041 31.5446 32.027 29.9782C32.2921 29.3999 33.256 28.7974 33.8585 28.8215C34.461 28.8456 35.3044 29.4722 35.6659 30.0746C36.0273 30.6771 36.0273 31.5928 36.196 32.388Z" fill="white"/>
<path id="Vector_6" d="M17.9053 21.5198C18.0258 20.7005 18.0017 19.8088 18.3631 19.1582C18.7545 18.5083 19.3592 18.0143 20.0741 17.7605C20.9416 17.4954 21.7128 18.0497 22.0502 18.9172C22.7008 20.58 22.7972 22.3151 22.0502 23.9296C21.761 24.5321 20.9176 25.0622 20.2428 25.1827C19.5681 25.3032 18.6282 24.7008 18.339 23.8573C18.1342 23.0905 17.9892 22.309 17.9053 21.5198Z" fill="white"/>
</g>
<defs>
<filter id="filter0_i_84_231" x="0" y="0" width="55" height="54.9465" filterUnits="userSpaceOnUse" color-interpolation-filters="sRGB">
<feFlood flood-opacity="0" result="BackgroundImageFix"/>
<feBlend mode="normal" in="SourceGraphic" in2="BackgroundImageFix" result="shape"/>
<feColorMatrix in="SourceAlpha" type="matrix" values="0 0 0 0 0 0 0 0 0 0 0 0 0 0 0 0 0 0 127 0" result="hardAlpha"/>
<feOffset dx="1" dy="1"/>
<feGaussianBlur stdDeviation="0.5"/>
<feComposite in2="hardAlpha" operator="arithmetic" k2="-1" k3="1"/>
<feColorMatrix type="matrix" values="0 0 0 0 0 0 0 0 0 0 0 0 0 0 0 0 0 0 0.35 0"/>
<feBlend mode="normal" in2="shape" result="effect1_innerShadow_84_231"/>
</filter>
<filter id="filter1_d_84_231" x="28.2998" y="26.9707" width="10.9922" height="13.0759" filterUnits="userSpaceOnUse" color-interpolation-filters="sRGB">
<feFlood flood-opacity="0" result="BackgroundImageFix"/>
<feColorMatrix in="SourceAlpha" type="matrix" values="0 0 0 0 0 0 0 0 0 0 0 0 0 0 0 0 0 0 127 0" result="hardAlpha"/>
<feOffset dy="1"/>
<feGaussianBlur stdDeviation="0.5"/>
<feComposite in2="hardAlpha" operator="out"/>
<feColorMatrix type="matrix" values="0 0 0 0 0 0 0 0 0 0 0 0 0 0 0 0 0 0 0.25 0"/>
<feBlend mode="normal" in2="BackgroundImageFix" result="effect1_dropShadow_84_231"/>
<feBlend mode="normal" in="SourceGraphic" in2="effect1_dropShadow_84_231" result="shape"/>
</filter>
<filter id="filter2_d_84_231" x="14.7358" y="15.9258" width="11.021" height="13.051" filterUnits="userSpaceOnUse" color-interpolation-filters="sRGB">
<feFlood flood-opacity="0" result="BackgroundImageFix"/>
<feColorMatrix in="SourceAlpha" type="matrix" values="0 0 0 0 0 0 0 0 0 0 0 0 0 0 0 0 0 0 127 0" result="hardAlpha"/>
<feOffset dy="1"/>
<feGaussianBlur stdDeviation="0.5"/>
<feComposite in2="hardAlpha" operator="out"/>
<feColorMatrix type="matrix" values="0 0 0 0 0 0 0 0 0 0 0 0 0 0 0 0 0 0 0.25 0"/>
<feBlend mode="normal" in2="BackgroundImageFix" result="effect1_dropShadow_84_231"/>
<feBlend mode="normal" in="SourceGraphic" in2="effect1_dropShadow_84_231" result="shape"/>
</filter>
</defs>
</svg>
