<svg width="97" height="100" viewBox="0 0 97 100" fill="none" xmlns="http://www.w3.org/2000/svg">
<path d="M119.778 63.3549C117.009 75.8146 110.285 87.0502 100.607 95.3921C90.9292 103.734 78.8128 108.737 66.0583 109.658C53.3878 111.022 40.6137 108.283 29.6217 101.848C18.6297 95.4116 10.0023 85.6189 5.01304 73.9152C3.5624 70.799 2.47018 67.5288 1.75729 64.1672C0.943357 63.3549 0.943357 62.5425 2.57123 61.7302L26.1754 53.6068C30.8709 52.4158 35.7663 52.2343 40.5374 53.0746C45.3084 53.9149 49.8459 55.7577 53.8493 58.4809C57.8586 61.9144 62.2244 64.91 66.8723 67.4165C71.2794 70.2906 76.3054 72.0832 81.5394 72.6479C86.7735 73.2126 92.0672 72.5335 96.988 70.6659L117.336 64.1672L119.778 63.3549Z" fill="#183B6B"/>
<path d="M2.44531 35.6916C5.35358 22.6184 12.6045 10.9012 23.0282 2.43039C33.452 -6.04039 46.4405 -10.7707 59.8982 -10.9972C73.8456 -11.1314 87.4138 -6.48245 98.3198 2.16754C109.226 10.8175 116.804 22.9405 119.779 36.4966L108.45 40.5215L93.8844 45.3514C89.3525 46.5732 84.6037 46.7736 79.9841 45.938C75.3645 45.1025 70.9905 43.252 67.181 40.5215L50.1878 29.2518C46.0223 27.3301 41.5085 26.268 36.919 26.1297C32.3294 25.9913 27.7593 26.7796 23.4844 28.4468L4.8729 34.8867L2.44531 35.6916Z" fill="#183B6B"/>
<path d="M0.385548 47.944C-0.428965 42.3032 -0.428965 42.3032 5.27263 40.6916L25.6355 33.4392C29.9341 31.9345 34.5283 31.4424 39.0529 32.0019C43.5775 32.5615 47.9078 34.1572 51.6999 36.6625L65.5466 45.5265C70.2709 48.6811 75.6476 50.7523 81.2843 51.5887C86.9209 52.4252 92.6752 52.0059 98.1271 50.3615L118.49 43.1091C120.119 42.3032 120.934 42.3032 120.934 44.7207C120.934 47.1382 121.748 47.944 117.675 49.5557L98.9417 56.0022C93.4784 58.382 87.4479 59.1907 81.5414 58.3356C75.6349 57.4804 70.0915 54.9961 65.5466 51.1673L51.6999 42.3032C47.2399 39.8976 42.2943 38.5049 37.2223 38.2261C32.1504 37.9473 27.0793 38.7896 22.3774 40.6916L0.385548 47.944Z" fill="#183B6B"/>
<path d="M0.45141 58.1606V55.7877C-0.361128 53.4148 -0.361128 53.4148 2.88902 51.8328C6.13917 50.2509 18.3272 46.296 26.4526 44.7141C30.5627 43.0222 35.0608 42.4235 39.4865 42.9794C43.9123 43.5354 48.107 45.2259 51.6413 47.878L65.4544 56.5787C70.1562 59.7112 75.559 61.7046 81.2125 62.3925C86.8661 63.0804 92.6067 62.4431 97.9559 60.5335L120.707 53.4148C121.519 56.5787 120.707 58.1606 117.457 59.7425L96.3308 66.8613C91.4272 68.4525 86.1982 68.852 81.0997 68.0248C76.0011 67.1976 71.1879 65.1688 67.0795 62.1155C62.2443 58.496 57.0763 55.3186 51.6413 52.6238C47.3396 50.3019 42.5828 48.8903 37.6821 48.4814C32.7814 48.0725 27.8473 48.6755 23.2025 50.2509L2.07648 57.3696L0.45141 58.1606Z" fill="#183B6B"/>
</svg>
