<svg width="18" height="22" viewBox="0 0 18 22" fill="none" xmlns="http://www.w3.org/2000/svg">
<g clip-path="url(#clip0_1468_86)">
<path d="M6.92465 0H11.1047C11.2598 0.0730469 11.4236 0.128906 11.5615 0.223437C11.945 0.485547 12.0872 0.872266 12.0829 1.31914V2.53516H16.1121C16.7671 2.53516 17.2455 2.86172 17.4652 3.46758C17.6333 3.93594 17.7971 4.40859 17.9436 4.88984C18.1763 5.65898 17.6893 6.325 16.8792 6.35508H16.6378C16.6335 6.41523 16.6249 6.44961 16.6249 6.48398C16.4784 8.30872 16.3304 10.1349 16.1811 11.9625C15.9699 14.6051 15.7501 17.252 15.539 19.8988C15.4959 20.4359 15.3709 20.9344 14.9874 21.3512C14.6039 21.768 14.216 21.9055 13.7334 22H4.46835C4.44325 21.9881 4.41733 21.9781 4.39078 21.9699C3.50306 21.8066 2.88683 21.2008 2.74031 20.3027C2.67567 19.9117 2.65413 19.5078 2.62396 19.1082C2.47457 17.2491 2.32518 15.3871 2.17579 13.5223C2.00342 11.4197 1.83248 9.31563 1.66298 7.21016C1.63713 6.93086 1.61127 6.64727 1.58542 6.35508H1.15018C0.30555 6.33789 -0.185711 5.66328 0.0642291 4.85977C0.202127 4.43008 0.348644 4.00469 0.49516 3.5793C0.736482 2.86172 1.18465 2.53516 1.93878 2.53516H5.91628C5.91628 2.10977 5.92058 1.71016 5.91628 1.31055C5.91628 0.979688 5.96368 0.648828 6.22224 0.42539C6.4808 0.201953 6.68764 0.141797 6.92465 0ZM2.89114 6.36797C3.04627 8.33164 3.20141 10.2738 3.36085 12.2117C3.5677 14.7727 3.77598 17.3336 3.9857 19.8945C4.03742 20.4961 4.27012 20.7109 4.88204 20.7109H12.9361C13.1387 20.7109 13.3412 20.7152 13.5394 20.7066C13.8971 20.6938 14.16 20.4531 14.216 20.1008C14.2332 19.9805 14.2419 19.8602 14.2505 19.7398C14.3453 18.5969 14.4358 17.4582 14.5263 16.3152C14.6498 14.8027 14.7733 13.2917 14.8969 11.782C15.0089 10.4328 15.1167 9.08359 15.2287 7.73438C15.2632 7.28464 15.2976 6.82917 15.3321 6.36797H2.89114ZM1.36133 5.05313H16.6335C16.5215 4.71797 16.4051 4.4 16.3146 4.07773C16.2629 3.88437 16.1681 3.81992 15.957 3.81992H2.03789C1.99049 3.81992 1.93447 3.80703 1.89138 3.82422C1.84828 3.84141 1.75779 3.88438 1.74055 3.93594C1.60696 4.30117 1.49061 4.6707 1.36133 5.05313ZM10.7815 1.30195H7.22631V2.52227H10.7815V1.30195Z" fill="white"/>
<path d="M13.1474 13.548C13.0554 15.324 12.9635 17.0957 12.8716 18.8632C12.863 19.0437 12.8543 19.2241 12.8371 19.4003C12.8069 19.7741 12.5268 20.0319 12.1735 20.0233C11.8201 20.0148 11.5443 19.714 11.5529 19.3358C11.5572 19.0394 11.5788 18.7472 11.596 18.455C11.6736 16.9482 11.754 15.4414 11.8373 13.9347C11.9408 11.898 12.0456 9.86124 12.1519 7.82452C12.1735 7.37335 12.432 7.11124 12.8242 7.11983C13.2163 7.12843 13.449 7.40343 13.4404 7.78155C13.4318 8.15968 13.4102 8.61085 13.3887 9.02765C13.3068 10.5316 13.2293 12.0398 13.1474 13.548Z" fill="white"/>
<path d="M6.1627 13.5823C6.26325 15.4701 6.36524 17.3564 6.46866 19.2413C6.49883 19.7956 6.07652 20.1565 5.60249 19.9761C5.48577 19.937 5.38371 19.8635 5.30983 19.7652C5.23595 19.667 5.19375 19.5487 5.1888 19.4261C5.15001 18.7858 5.11123 18.1413 5.07676 17.4968C4.95322 15.1994 4.82682 12.8991 4.69754 10.596C4.65013 9.66786 4.59411 8.73974 4.55533 7.80732C4.53809 7.36474 4.86991 7.07255 5.29653 7.12841C5.6068 7.17138 5.82227 7.4206 5.84381 7.77724C5.89122 8.56786 5.93 9.36279 5.97309 10.1534C6.03917 11.2964 6.10094 12.4393 6.15839 13.5823H6.1627Z" fill="white"/>
<path d="M9.6484 13.5825V19.2716C9.6484 19.6583 9.50619 19.8861 9.21316 19.9849C9.13013 20.0145 9.04179 20.0263 8.95387 20.0197C8.86595 20.013 8.78042 19.988 8.70281 19.9463C8.6252 19.9046 8.55726 19.847 8.50338 19.7774C8.44951 19.7078 8.41091 19.6277 8.39008 19.5423C8.36564 19.4454 8.35405 19.3457 8.35561 19.2458V7.88488C8.35561 7.39934 8.61417 7.10715 9.02786 7.12004C9.18429 7.12377 9.3338 7.18509 9.44758 7.2922C9.56136 7.3993 9.63136 7.54461 9.64409 7.70012C9.6484 7.78605 9.6484 7.87199 9.6484 7.95793V13.5825Z" fill="white"/>
</g>
<defs>
<clipPath id="clip0_1468_86">
<rect width="18" height="22" fill="white"/>
</clipPath>
</defs>
</svg>
