<svg width="29" height="29" viewBox="0 0 29 29" fill="none" xmlns="http://www.w3.org/2000/svg">
<g id="&#208;&#151;&#208;&#189;&#208;&#176;&#208;&#186; &#209;&#143;&#208;&#183;&#209;&#139;&#208;&#186;&#208;&#176;">
<circle id="Ellipse 9" cx="14.5" cy="14.5" r="14.5" fill="#0F84F0"/>
<path id="Vector" d="M26 13.6772V15.0565C25.9893 15.101 25.9824 15.1463 25.9795 15.1919C25.9565 16.1932 25.7367 17.1562 25.4299 18.1039C24.6859 20.4104 23.2901 22.2598 21.3803 23.7107C19.5933 25.067 17.5532 25.8078 15.3086 25.9687C13.6852 26.0862 12.1001 25.8742 10.5739 25.3097C9.04762 24.7452 7.6722 23.9073 6.50131 22.7579C4.41773 20.7118 3.2494 18.2367 3.03465 15.3273C2.95028 14.1753 3.0142 13.0258 3.2903 11.8917C4.01636 8.9167 5.65084 6.58032 8.19374 4.88253C10.533 3.32693 13.1278 2.77008 15.9068 3.08426C17.7117 3.28861 19.3862 3.90165 20.8895 4.9285C23.6352 6.8068 25.2952 9.38585 25.8696 12.6656C25.9284 13.0003 25.9565 13.34 26 13.6772ZM11.6374 14.5048C11.5658 15.0718 11.7831 18.3721 11.9212 18.8037H17.1033C17.2822 17.3733 17.3921 15.9454 17.3819 14.5048H11.6374ZM10.1827 14.5073L10.0932 14.4997H4.53534C4.45097 14.4997 4.42029 14.5252 4.4254 14.6095C4.44586 14.9058 4.44586 15.2047 4.48165 15.501C4.61459 16.6198 4.92904 17.69 5.38155 18.7195C5.4199 18.8037 5.46591 18.8191 5.54772 18.8191H10.3642C10.4103 18.8191 10.4537 18.814 10.4972 18.8114C10.2991 17.385 10.194 15.9473 10.1827 14.5073ZM18.8264 14.5048C18.8147 15.9438 18.7105 17.3806 18.5145 18.8063L18.6142 18.814H23.4818C23.5585 18.814 23.5969 18.791 23.6224 18.7195C23.7937 18.2469 23.9906 17.7846 24.1388 17.3069C24.4073 16.4384 24.576 15.5495 24.5837 14.635C24.5837 14.5354 24.5632 14.4946 24.4507 14.4946H18.9695L18.8264 14.5048ZM11.6681 13.0513H17.341C17.3442 13.0268 17.3451 13.002 17.3436 12.9773C17.2694 12.096 17.1953 11.2122 17.1237 10.331C17.1135 10.2135 17.0675 10.1828 16.9473 10.1828C15.3231 10.1862 13.7005 10.1862 12.0797 10.1828C11.9442 10.1803 11.893 10.216 11.8828 10.3514C11.8163 11.1739 11.7396 11.9964 11.6706 12.8163C11.663 12.893 11.6681 12.9696 11.6681 13.0513ZM10.5023 10.1828H10.354C8.7485 10.1828 7.14215 10.1828 5.53494 10.1828C5.44035 10.1828 5.402 10.2211 5.36877 10.3003C5.02363 11.0717 4.78843 11.8815 4.60436 12.704C4.52255 13.0769 4.53278 13.0386 4.87024 13.0411C6.61635 13.0539 8.36247 13.0539 10.1086 13.0641C10.2185 13.0641 10.2185 13.0079 10.2262 12.9287C10.2901 12.2161 10.354 11.506 10.423 10.7933C10.4435 10.5966 10.4742 10.3999 10.5023 10.1828ZM18.5119 10.216C18.5124 10.2527 18.515 10.2894 18.5196 10.3259C18.6065 11.1892 18.6985 12.0526 18.7829 12.916C18.7931 13.0284 18.8238 13.0641 18.9414 13.0641C19.9538 13.059 20.9687 13.0641 21.9837 13.0616C22.7387 13.0565 23.4929 13.0479 24.2462 13.036C24.461 13.0335 24.4686 13.0207 24.4252 12.8138C24.2385 11.9453 23.9931 11.0973 23.6327 10.2824C23.602 10.2109 23.5636 10.1828 23.4818 10.1828L18.7522 10.2032C18.6755 10.2032 18.6014 10.2109 18.5119 10.216ZM14.5033 20.2699V20.2546H13.2122C12.9182 20.2572 12.6242 20.2623 12.3328 20.2751C12.164 20.2802 12.1513 20.3006 12.187 20.4564C12.3762 21.2993 12.5986 22.1321 12.9387 22.929C13.1534 23.4399 13.4219 23.915 13.8513 24.2803C14.2808 24.6455 14.7103 24.6558 15.1501 24.2879C15.4799 24.0146 15.7151 23.6647 15.9017 23.2841C16.344 22.3849 16.6022 21.4245 16.822 20.4539C16.8578 20.3006 16.8425 20.2878 16.6865 20.2725H14.5033V20.2699ZM16.8425 8.7396C16.8415 8.70799 16.839 8.67644 16.8348 8.64509C16.7786 8.39221 16.7274 8.13677 16.6635 7.88644C16.4692 7.12269 16.2443 6.36916 15.8736 5.66927C15.6767 5.29633 15.4569 4.93617 15.1168 4.66796C14.7768 4.39975 14.3345 4.3691 13.9613 4.63475C13.8603 4.70583 13.7669 4.78715 13.6826 4.87742C13.3937 5.17883 13.1815 5.53133 13.0102 5.90937C12.6447 6.7191 12.4018 7.5697 12.2152 8.43563C12.1947 8.53269 12.1794 8.63231 12.1589 8.7396H16.8425ZM16.7786 4.70117C16.8144 4.77524 16.8323 4.82122 16.8578 4.86465C17.1603 5.38889 17.4063 5.94374 17.5916 6.51987C17.8165 7.21465 18.0057 7.91965 18.2077 8.6221C18.2281 8.69617 18.2435 8.74726 18.3457 8.74726H22.6126C22.6484 8.74726 22.6816 8.74215 22.7379 8.73704C21.9735 7.67188 21.0761 6.78296 19.9921 6.08563C19.0079 5.44959 17.9571 4.96937 16.7786 4.70117ZM12.2152 4.69606C11.0269 4.98978 9.89944 5.48949 8.884 6.17247C7.8706 6.85379 6.99105 7.71528 6.28912 8.71405L6.39138 8.72172L7.45234 8.72938C8.49796 8.73193 9.54103 8.73193 10.5841 8.73704C10.7068 8.73704 10.7886 8.71661 10.8065 8.57612C10.8167 8.49183 10.8474 8.41009 10.8704 8.32835C11.1849 7.13291 11.5377 5.9528 12.1487 4.8672C12.1743 4.82378 12.187 4.77524 12.2152 4.69606ZM16.7709 24.3084C19.2329 23.6749 21.2014 22.3569 22.6995 20.2878C22.6075 20.2802 22.541 20.2725 22.4745 20.2725L18.3739 20.247C18.269 20.247 18.2281 20.2751 18.2051 20.3798C17.9725 21.4245 17.6529 22.4437 17.2183 23.422C17.0879 23.7158 16.9294 23.9967 16.7709 24.3084ZM12.2535 24.3084C12.2101 24.2317 12.1794 24.1832 12.1538 24.1296C12.0209 23.869 11.8751 23.6136 11.7575 23.3454C11.3357 22.3875 11.0289 21.3939 10.7937 20.3747C10.7758 20.298 10.7579 20.2495 10.6582 20.2495L6.49108 20.2751C6.43995 20.2751 6.38627 20.2853 6.30957 20.2929C7.81793 22.3466 9.77112 23.6877 12.2535 24.3084Z" fill="white"/>
</g>
</svg>
