<svg width="144" height="115" viewBox="0 0 144 115" fill="none" xmlns="http://www.w3.org/2000/svg">
<g id="&#208;&#160;&#209;&#131;&#208;&#186;&#208;&#176;" clip-path="url(#clip0_71_32)">
<path id="Vector" d="M0.923168 68.7116C0.659431 67.7937 1.31877 66.8758 1.58251 66.0891C4.32388 59.3652 7.77155 52.9481 11.8682 46.9442C18.9087 36.645 27.6469 27.6012 37.7144 20.194C38.7863 19.4638 39.6495 18.4699 40.2199 17.3091C41.95 13.8435 44.4262 10.7992 47.4726 8.39236C51.6574 5.07701 56.5169 2.70567 61.7144 1.44253C65.9972 0.306033 70.5105 0.351374 74.7693 1.57367C77.4337 2.22442 79.8865 3.54192 81.8945 5.40097C83.9025 7.26001 85.399 9.59882 86.2419 12.1951C87.1466 15.2055 87.8514 18.2718 88.3518 21.3741C88.4836 22.5543 88.7474 23.6033 88.8792 24.7835C94.0221 27.6683 97.7144 31.9956 101.143 36.5851C105.723 42.8956 109.365 49.8292 111.956 57.1723C112.552 58.7345 112.951 60.3642 113.143 62.0241C113.298 63.0954 113.67 64.1242 114.237 65.0484C114.804 65.9725 115.553 66.7726 116.44 67.4004L122.769 72.5144L140.967 86.0206L143.077 87.7253L122.901 113.951L121.583 112.64L113.275 102.543L111.297 100.314C108.171 96.5326 104.134 93.6003 99.5606 91.7903L96.3957 90.3479C95.2992 91.0804 94.1537 91.7376 92.9672 92.3148C88.3664 94.6368 83.3446 96.019 78.1979 96.3798C75.416 96.428 72.6477 95.984 70.0221 95.0685C65.8561 96.7981 61.951 99.0928 58.4177 101.887C54.9145 104.672 51.6505 107.743 48.6595 111.066C48.2639 110.279 48.7913 110.017 49.055 109.624C53.2526 103.678 58.5299 98.5636 64.6155 94.544L66.7254 92.9705L66.3298 92.3148C63.8796 89.5192 62.3595 86.038 61.9781 82.349C61.4506 79.202 61.0551 76.0549 60.3958 73.0389C58.8581 65.5322 55.1983 58.6177 49.8463 53.1073C48.0001 51.1404 46.0221 49.3046 44.0441 47.4688C42.066 45.633 41.2749 44.5839 39.9562 43.0104C38.379 41.279 37.244 39.1955 36.6473 36.9359C36.0505 34.6764 36.0094 32.3073 36.5276 30.0286C36.6594 29.7664 36.5276 29.5041 36.5276 29.2418C36.5276 28.9796 35.3408 29.6352 34.6815 30.0286C28.5975 34.0249 23.0572 38.7848 18.1979 44.1905C12.0338 50.7821 6.75868 58.1434 2.5056 66.0891L0.923168 68.7116ZM138.857 88.2498L136.352 86.414L118.418 72.9078L113.275 68.5805C111.79 67.1691 110.777 65.3381 110.374 63.3354C110.033 61.2809 109.503 59.2618 108.791 57.3034C107.355 53.6369 105.727 50.0477 103.912 46.5509C100.916 41.02 97.1415 35.9423 92.7034 31.4711C91.464 30.196 90.0939 29.0534 88.6155 28.0617C88.5511 27.9691 88.4675 27.8914 88.3703 27.8337C88.2731 27.776 88.1646 27.7397 88.0521 27.7273C87.9396 27.7148 87.8258 27.7266 87.7182 27.7616C87.6107 27.7967 87.5119 27.8543 87.4287 27.9306C87.3882 28.1578 87.4353 28.3919 87.5606 28.5862C89.4067 32.1267 92.5715 34.6181 95.2089 37.6341C94.7174 38.5164 93.9863 39.2434 93.099 39.7322L89.5386 36.0606C86.652 33.1227 83.4706 30.4864 80.0441 28.1928C78.7389 27.35 77.3725 26.6049 75.9562 25.9636C75.2968 25.7014 74.6375 25.308 73.8462 25.8325C73.9285 26.4041 74.1554 26.9455 74.5056 27.406C75.2682 28.4689 76.1054 29.4767 77.0111 30.422L86.6375 38.552C87.436 39.1497 88.1462 39.856 88.7474 40.6501L87.0331 42.7481L84.7913 41.1746C81.135 38.7439 77.3492 36.5115 73.4507 34.487C71.4625 33.3466 69.3352 32.4652 67.121 31.8644L64.6155 31.6022C63.6924 31.6022 63.2969 32.2578 63.6925 33.0446C64.4595 34.1153 65.4488 35.0096 66.5935 35.6672L73.0551 39.7322L83.6045 47.2065C84.3162 47.5733 84.8761 48.1765 85.187 48.9112L83.4726 50.8781L82.0221 49.9602C80.0717 48.447 77.9468 47.1704 75.6924 46.1575C72.3715 44.6187 68.932 43.347 65.4067 42.3547C63.813 41.8381 62.1819 41.4435 60.5276 41.1746C59.3586 40.8271 58.107 40.8732 56.9671 41.3057C57.2587 41.9086 57.6123 42.4798 58.0221 43.0104C59.1608 44.0831 60.3969 45.0488 61.7144 45.8952L70.8133 51.5337L78.4617 56.3855C79.6542 57.2847 80.7581 58.2945 81.7584 59.4015C82.6567 60.344 83.2534 61.5306 83.4726 62.8108C83.6847 63.7649 83.5322 64.7633 83.0447 65.6117C82.5571 66.4601 81.7696 67.0977 80.8353 67.4004C80.3546 67.5987 79.8392 67.7009 79.3188 67.7009C78.7983 67.7009 78.283 67.5987 77.8023 67.4004C76.9239 66.998 76.0851 66.5151 75.2968 65.9579C72.7283 64.0928 69.9913 62.4685 67.121 61.1062C65.8051 60.4686 64.4377 59.9423 63.0331 59.5326H61.7144C61.6842 59.8447 61.7294 60.1594 61.8463 60.4505C62.0296 60.9309 62.2975 61.3749 62.6374 61.7618C63.5327 62.9568 64.5016 64.0954 65.5386 65.1712L72.2639 71.4653C76.5821 75.6773 81.5172 79.2143 86.9012 81.9557L103.648 90.3479C105.786 91.334 107.747 92.663 109.451 94.2818L112.088 96.9043L121.451 107.526C121.846 108.05 122.11 108.837 123.033 108.837C128.308 102.149 133.451 95.3308 138.857 88.2498ZM62.3738 56.2544C67.7804 57.3034 72.3957 60.3194 76.8792 63.4665C77.2431 63.7733 77.6413 64.0373 78.066 64.2533C78.46 64.5043 78.9168 64.6405 79.3847 64.6466C79.5351 64.6478 79.684 64.617 79.8214 64.5563C79.9588 64.4956 80.0816 64.4063 80.1815 64.2946C80.2814 64.1828 80.3561 64.0511 80.4007 63.9083C80.4452 63.7655 80.4585 63.6148 80.4397 63.4665C80.1954 62.7186 79.8398 62.0114 79.3847 61.3684C78.4693 60.3516 77.4532 59.429 76.3518 58.6147L67.5166 52.9762C64.9788 51.5712 62.5141 50.0394 60.132 48.3867C58.6571 47.4401 57.2868 46.3413 56.044 45.1084C55.231 44.3107 54.6403 43.3166 54.3298 42.2236C54.1382 41.8326 54.0425 41.402 54.0505 40.9671C54.0585 40.5322 54.17 40.1054 54.3758 39.7216C54.5816 39.3378 54.876 39.008 55.2348 38.7591C55.5935 38.5102 56.0064 38.3494 56.4397 38.2897C57.6364 37.9175 58.9117 37.8722 60.132 38.1586L66.7254 39.3388L65.143 38.2897L62.2419 36.0606C61.5914 35.2658 61.0585 34.3827 60.6594 33.438C60.4965 32.9824 60.4293 32.4984 60.4617 32.0159C60.4941 31.5334 60.6255 31.0627 60.8479 30.6326C61.0703 30.2026 61.3789 29.8225 61.7548 29.5156C62.1306 29.2088 62.5657 28.9817 63.0331 28.8485C63.97 28.5425 64.9732 28.4971 65.9342 28.7173C67.6347 29.031 69.3097 29.4693 70.9452 30.0286L72.6595 30.5531C72.2639 29.7664 72.0001 29.5041 71.8682 29.1107C71.7364 28.7173 70.9452 27.1438 70.6814 26.2259C70.5812 25.7789 70.5846 25.3152 70.6914 24.8697C70.7983 24.4243 71.0058 24.0089 71.2981 23.655C71.5904 23.3012 71.9598 23.0181 72.3785 22.8274C72.7972 22.6367 73.254 22.5433 73.7144 22.5543C74.7934 22.5263 75.8677 22.7043 76.8792 23.0788L81.6265 25.7014L83.8683 27.0127L85.7144 24.259C85.2902 21.0346 84.6738 17.8382 83.8683 14.6866L83.077 12.7196C82.4166 10.8554 81.3367 9.16575 79.9198 7.77954C78.5029 6.39332 76.7864 5.34714 74.9012 4.72075C71.5741 3.481 67.9609 3.20813 64.4836 3.93399C57.9424 4.99177 51.9001 8.06478 47.2089 12.7196C44.7068 15.0571 42.8459 17.9907 41.8023 21.243C41.0447 23.2646 40.8167 25.4445 41.1397 27.5779C41.4626 29.7112 42.326 31.7278 43.6485 33.438C44.7239 34.9266 45.9143 36.3295 47.2089 37.6341C49.0551 39.601 51.0331 41.4368 53.0111 43.2726C56.5018 46.741 59.4371 50.7211 61.7144 55.0742C61.8835 55.4936 62.105 55.8901 62.3738 56.2544ZM88.2199 86.1518C85.8463 84.8405 84.0001 83.9226 82.154 82.7424L76.7474 79.202L71.4726 74.8747C69.7583 73.4323 68.4397 71.7276 66.1979 70.5474C66.3684 72.9828 66.7657 75.3972 67.3848 77.7595C67.8761 79.0613 68.4486 80.3314 69.099 81.5623C69.7832 82.8214 70.7223 83.9258 71.8571 84.806C72.9919 85.6862 74.2978 86.323 75.6924 86.6763C79.7803 87.8564 83.6045 87.4631 88.2199 86.1518Z" fill="#0F84F0" stroke="#0F84F0" stroke-miterlimit="10"/>
<path id="Vector_2" d="M0.923024 68.7114L0.659271 69.2359C0.395535 68.8426 0.791156 68.8426 0.923024 68.7114Z" fill="black"/>
<path id="Vector_3" d="M138.857 88.2496C133.451 95.3306 128.308 102.149 123.033 108.837C122.11 108.837 121.846 108.05 121.451 107.526L112.088 96.9041L109.451 94.2815C107.746 92.6628 105.786 91.3338 103.648 90.3477L86.9011 81.9554C81.5171 79.214 76.582 75.6771 72.2638 71.4651L65.5385 65.1709C64.5015 64.0952 63.5326 62.9565 62.6374 61.7616C62.2974 61.3746 62.0295 60.9306 61.8462 60.4503C61.7293 60.1591 61.6841 59.8444 61.7143 59.5324H63.033C64.4376 59.942 65.805 60.4684 67.1209 61.1059C69.9912 62.4683 72.7282 64.0925 75.2967 65.9577C76.085 66.5149 76.9238 66.9978 77.8022 67.4001C78.2829 67.5985 78.7983 67.7006 79.3187 67.7006C79.8392 67.7006 80.3545 67.5985 80.8352 67.4001C81.7695 67.0974 82.557 66.4598 83.0446 65.6115C83.5321 64.7631 83.6846 63.7647 83.4725 62.8106C83.2533 61.5304 82.6566 60.3438 81.7583 59.4013C80.758 58.2943 79.6541 57.2844 78.4616 56.3853L70.8132 51.5335L61.7143 45.895C60.3968 45.0486 59.1607 44.0828 58.022 43.0101C57.6122 42.4796 57.2587 41.9083 56.967 41.3055C58.1069 40.873 59.3586 40.8269 60.5275 41.1743C62.1818 41.4433 63.8129 41.8378 65.4066 42.3545C68.9319 43.3468 72.3714 44.6185 75.6923 46.1572C77.9467 47.1702 80.0716 48.4467 82.022 49.96L83.4725 50.8779L85.1869 48.9109C84.876 48.1762 84.3161 47.5731 83.6044 47.2063L73.055 39.7319L66.5934 35.6669C65.4487 35.0094 64.4594 34.115 63.6924 33.0444C63.2968 32.2576 63.6923 31.6019 64.6154 31.6019L67.1209 31.8642C69.3351 32.4649 71.4625 33.3464 73.4506 34.4868C77.3491 36.5112 81.1349 38.7437 84.7912 41.1743L87.033 42.7479L88.7473 40.6498C88.1462 39.8558 87.4359 39.1495 86.6374 38.5518L77.011 30.4218C76.1053 29.4765 75.2681 28.4687 74.5055 27.4058C74.1553 26.9453 73.9284 26.4038 73.8461 25.8323C74.6374 25.3078 75.2967 25.7011 75.9561 25.9634C77.3724 26.6046 78.7388 27.3498 80.044 28.1926C83.4705 30.4862 86.6519 33.1225 89.5385 36.0603L93.0989 39.7319C93.9862 39.2432 94.7173 38.5162 95.2088 37.6339C92.5714 34.6179 89.4066 32.1264 87.5605 28.586C87.4352 28.3917 87.3881 28.1576 87.4286 27.9303C87.5118 27.8541 87.6106 27.7965 87.7181 27.7614C87.8257 27.7263 87.9395 27.7146 88.052 27.727C88.1645 27.7395 88.273 27.7757 88.3702 27.8334C88.4674 27.8911 88.551 27.9689 88.6154 28.0615C90.0938 29.0531 91.4639 30.1958 92.7033 31.4708C97.1414 35.9421 100.916 41.0198 103.912 46.5506C105.726 50.0475 107.355 53.6366 108.791 57.3032C109.503 59.2616 110.033 61.2806 110.374 63.3351C110.777 65.3378 111.79 67.1688 113.275 68.5803L118.418 72.9075L136.352 86.4138L138.857 88.2496Z" fill="white"/>
<path id="Vector_4" d="M62.3737 56.2542C62.1049 55.89 61.8834 55.4935 61.7144 55.0741C59.437 50.7209 56.5018 46.7408 53.011 43.2725C51.033 41.4367 49.055 39.6009 47.2089 37.6339C45.9142 36.3293 44.7238 34.9264 43.6484 33.4378C42.3259 31.7276 41.4625 29.711 41.1396 27.5777C40.8166 25.4444 41.0447 23.2644 41.8022 21.2428C42.8458 17.9906 44.7068 15.0569 47.2089 12.7195C51.9 8.06461 57.9423 4.9916 64.4836 3.93382C67.9608 3.20796 71.574 3.48083 74.9011 4.72058C76.7864 5.34697 78.5029 6.39316 79.9198 7.77937C81.3366 9.16558 82.4165 10.8552 83.077 12.7195L83.8682 14.6864C84.6737 17.838 85.2902 21.0344 85.7143 24.2588L83.8682 27.0125L81.6264 25.7012L76.8792 23.0786C75.8676 22.7042 74.7933 22.5261 73.7143 22.5541C73.254 22.5431 72.7971 22.6365 72.3784 22.8273C71.9598 23.018 71.5903 23.301 71.298 23.6549C71.0057 24.0087 70.7982 24.4241 70.6914 24.8696C70.5845 25.315 70.5811 25.7788 70.6814 26.2257C70.9451 27.1436 71.4725 28.0615 71.8681 29.1106C72.2638 30.1596 72.2638 29.7662 72.6594 30.553L70.9451 30.0285C69.3096 29.4691 67.6346 29.0308 65.9341 28.7172C64.9731 28.497 63.97 28.5423 63.033 28.8483C62.5656 28.9816 62.1305 29.2086 61.7547 29.5155C61.3789 29.8223 61.0703 30.2025 60.8479 30.6325C60.6255 31.0625 60.494 31.5333 60.4616 32.0157C60.4292 32.4982 60.4964 32.9822 60.6594 33.4378C61.0585 34.3825 61.5913 35.2656 62.2418 36.0604L65.1429 38.2896L66.7253 39.3386L60.1319 38.1584C58.9116 37.872 57.6363 37.9173 56.4396 38.2896C56.0064 38.3492 55.5934 38.51 55.2347 38.7589C54.8759 39.0078 54.5816 39.3376 54.3757 39.7214C54.1699 40.1052 54.0584 40.5321 54.0504 40.9669C54.0424 41.4018 54.1381 41.8324 54.3297 42.2234C54.6402 43.3165 55.2309 44.3106 56.044 45.1083C57.2867 46.3411 58.657 47.44 60.1319 48.3865C62.5141 50.0392 64.9787 51.571 67.5165 52.976L76.3517 58.6146C77.4531 59.4289 78.4692 60.3514 79.3846 61.3683C79.8398 62.0113 80.1954 62.7185 80.4396 63.4663C80.4584 63.6147 80.4451 63.7653 80.4006 63.9081C80.3561 64.0509 80.2813 64.1827 80.1814 64.2944C80.0815 64.4062 79.9587 64.4954 79.8213 64.5561C79.6839 64.6168 79.535 64.6477 79.3846 64.6465C78.9168 64.6404 78.46 64.5041 78.066 64.2531C77.6412 64.0371 77.243 63.7731 76.8792 63.4663C72.3956 60.3192 67.7803 57.3033 62.3737 56.2542ZM50.7692 15.7354L50.3737 17.7024C50.2859 18.0155 50.3183 18.3499 50.4645 18.6406C50.6107 18.9314 50.8603 19.1578 51.1649 19.2759C51.7707 19.6299 52.4447 19.8533 53.1429 19.9315C54.3298 19.9315 54.8572 19.0136 55.5165 18.0957C56.1759 17.1778 55.5165 16.1288 54.8572 15.4731C54.5329 15.2028 54.148 15.0139 53.7348 14.9226C53.3217 14.8314 52.8925 14.8403 52.4836 14.9486C51.8784 15.131 51.3015 15.3958 50.7692 15.7354ZM74.7693 13.7685L75.2968 12.4572C75.587 12.0651 75.7207 11.5799 75.672 11.0955C75.6232 10.6111 75.3956 10.1618 75.033 9.83462C74.627 9.43009 74.1179 9.14311 73.5604 9.0045C73.0028 8.86589 72.4178 8.88087 71.8681 9.04784C71.4613 9.29714 71.1396 9.66277 70.9451 10.0969C70.7058 11.0016 70.5295 11.9217 70.4176 12.8506C71.6044 14.293 73.1868 13.7685 74.7693 13.7685ZM77.6704 19.1448C77.6704 18.0957 76.7473 17.5712 75.8242 17.0467C75.5718 16.9302 75.2929 16.8819 75.0157 16.9068C74.7385 16.9317 74.4728 17.0289 74.2455 17.1885C74.0181 17.3481 73.8371 17.5645 73.7207 17.8158C73.6043 18.0672 73.5566 18.3447 73.5825 18.6203C73.6374 19.2187 73.817 19.7993 74.1099 20.3249C74.5055 21.2428 75.1649 21.5051 76.2198 20.9806C77.2748 20.4561 77.6704 20.3249 77.6704 19.1448ZM52.3517 27.4059L53.9341 26.7502L55.121 26.0946C55.3847 24.3899 54.3297 23.7343 53.2748 23.2098C53.0522 23.1048 52.8081 23.0529 52.5618 23.0583C52.3156 23.0637 52.074 23.1262 51.8563 23.2408C51.6386 23.3554 51.4508 23.519 51.3079 23.7185C51.1649 23.918 51.0708 24.1479 51.033 24.3899C50.8469 24.9661 50.8781 25.59 51.1208 26.145C51.3635 26.7 51.801 27.1482 52.3517 27.4059ZM52.8792 35.4047C53.7089 35.783 54.653 35.8299 55.5165 35.5359C55.6484 35.0114 55.9121 34.4868 56.044 33.9623C56.031 33.5424 55.8832 33.1376 55.6222 32.8073C55.3612 32.4769 55.0007 32.2384 54.5935 32.1265C54.1955 32.0775 53.7928 32.1687 53.4555 32.3843C53.1182 32.5999 52.8676 32.9263 52.7473 33.3067C52.6047 33.6427 52.5425 34.0071 52.5654 34.3711C52.5882 34.7351 52.6957 35.0889 52.8792 35.4047ZM65.5385 16.3911L67.6484 16.6533C67.9122 16.6533 68.4396 16.5222 68.5714 16.2599C68.7877 15.6277 68.8773 14.9595 68.8352 14.293C68.8352 13.6374 68.044 13.1128 67.2528 13.1128C66.9097 13.1072 66.5757 13.2226 66.3101 13.4387C66.0445 13.6548 65.8646 13.9575 65.8022 14.293C65.6704 14.8175 65.6704 15.4732 65.5385 16.3911ZM63.1649 25.0456C63.5212 25.1677 63.9081 25.1697 64.2657 25.0511C64.6233 24.9326 64.9315 24.7002 65.1429 24.3899C65.241 24.2738 65.3126 24.138 65.3528 23.9917C65.393 23.8454 65.4008 23.6923 65.3758 23.5427C65.3507 23.3931 65.2933 23.2508 65.2076 23.1254C65.1219 23 65.0098 22.8946 64.8792 22.8164C64.6956 22.6939 64.4813 22.6248 64.2605 22.6169C64.0396 22.609 63.8209 22.6626 63.629 22.7716C63.4371 22.8807 63.2796 23.0408 63.1743 23.2341C63.069 23.4273 63.0201 23.646 63.033 23.8654C63.033 24.2588 63.1649 24.521 63.1649 25.0456ZM58.4177 15.0798C59.4726 15.4732 60 14.9486 60.5275 14.293C60.597 14.1734 60.6335 14.0377 60.6335 13.8996C60.6335 13.7615 60.597 13.6258 60.5275 13.5062C60.4359 13.2134 60.2333 12.9675 59.9625 12.8206C59.6917 12.6737 59.3742 12.6375 59.077 12.7195C58.9413 12.733 58.8102 12.7762 58.6933 12.8461C58.5764 12.916 58.4766 13.0108 58.4009 13.1236C58.3253 13.2365 58.2757 13.3646 58.2558 13.4988C58.2359 13.6329 58.2461 13.7698 58.2857 13.8996C58.2857 14.293 58.4177 14.6864 58.4177 15.0798ZM44.3078 24.3899V26.0946L44.7033 26.3568C46.1539 26.2257 46.8133 25.5701 46.5495 24.7833C46.2858 23.9965 45.8902 23.9965 44.3078 24.3899Z" fill="white"/>
<path id="Vector_5" d="M88.2197 86.1517C83.6044 87.463 79.7802 87.8564 75.6923 86.6762C74.2976 86.3229 72.9918 85.6861 71.857 84.8059C70.7222 83.9257 69.783 82.8213 69.0989 81.5622C68.4485 80.3313 67.876 79.0612 67.3846 77.7595C66.7656 75.3971 66.3682 72.9827 66.1978 70.5474C68.4395 71.7275 69.7582 73.4322 71.4725 74.8746L76.7472 79.2019L82.1538 82.7423C84 83.9225 85.8461 84.8404 88.2197 86.1517Z" fill="white"/>
<path id="Vector_6" d="M50.7691 15.7356C51.3014 15.396 51.8783 15.1312 52.4835 14.9488C52.8924 14.8404 53.3216 14.8315 53.7347 14.9228C54.1479 15.0141 54.5328 15.2029 54.8571 15.4733C55.5164 16.1289 56.0439 17.5714 55.5164 18.0959C54.989 18.6204 54.3296 19.9317 53.1428 19.9317C52.4446 19.8535 51.7706 19.6301 51.1648 19.276C50.8602 19.1579 50.6106 18.9315 50.4644 18.6408C50.3182 18.35 50.2858 18.0157 50.3736 17.7025L50.7691 15.7356Z" fill="#0F84F0"/>
<path id="Vector_7" d="M74.7691 13.7686C73.1867 13.7686 71.6043 14.2931 70.4175 12.8507C70.5294 11.9218 70.7056 11.0017 70.945 10.097C71.1395 9.66287 71.4611 9.29725 71.868 9.04795C72.4176 8.88098 73.0026 8.866 73.5602 9.00461C74.1178 9.14322 74.6269 9.4302 75.0329 9.83473C75.3954 10.1619 75.6231 10.6112 75.6718 11.0956C75.7205 11.58 75.5868 12.0652 75.2966 12.4573L74.7691 13.7686Z" fill="#0F84F0"/>
<path id="Vector_8" d="M77.6704 19.1447C77.6704 20.3249 76.8792 20.5871 76.2199 20.9805C75.5605 21.3739 74.5056 21.2428 74.11 20.3249C73.817 19.7992 73.6374 19.2187 73.5825 18.6202C73.5567 18.3446 73.6043 18.0672 73.7207 17.8158C73.8371 17.5644 74.0181 17.348 74.2455 17.1884C74.4729 17.0288 74.7386 16.9317 75.0157 16.9068C75.2929 16.8819 75.5718 16.9301 75.8243 17.0466C76.7473 17.5712 77.6704 18.0957 77.6704 19.1447Z" fill="#0F84F0"/>
<path id="Vector_9" d="M52.3517 27.406C51.8011 27.1483 51.3635 26.7001 51.1209 26.1451C50.8782 25.5901 50.847 24.9663 51.033 24.3901C51.0709 24.148 51.165 23.9181 51.3079 23.7186C51.4508 23.5191 51.6386 23.3556 51.8563 23.241C52.074 23.1264 52.3156 23.0639 52.5619 23.0585C52.8081 23.0531 53.0523 23.105 53.2748 23.2099C54.3298 23.7344 55.3847 24.3901 55.121 26.0947L53.9342 26.7504L52.3517 27.406Z" fill="#0F84F0"/>
<path id="Vector_10" d="M52.8792 35.4047C52.6957 35.0889 52.5883 34.7351 52.5654 34.3711C52.5425 34.007 52.6048 33.6427 52.7473 33.3066C52.8676 32.9263 53.1183 32.5999 53.4556 32.3843C53.7929 32.1686 54.1956 32.0774 54.5935 32.1265C55.0007 32.2383 55.3612 32.4769 55.6223 32.8072C55.8833 33.1376 56.0311 33.5423 56.044 33.9623C55.9121 34.4868 55.6485 35.0113 55.5166 35.5358C54.6531 35.8299 53.7089 35.783 52.8792 35.4047Z" fill="#0F84F0"/>
<path id="Vector_11" d="M65.5383 16.3912C65.6702 15.4733 65.6702 14.8177 65.8021 14.2931C65.8644 13.9576 66.0444 13.6549 66.3099 13.4388C66.5755 13.2228 66.9095 13.1073 67.2526 13.113C68.0438 13.113 68.835 13.6375 68.835 14.2931C68.8771 14.9596 68.7875 15.6278 68.5713 16.2601C68.4394 16.5223 67.912 16.6535 67.6483 16.6535L65.5383 16.3912Z" fill="#0F84F0"/>
<path id="Vector_12" d="M63.1649 25.0456C63.1649 24.5211 63.033 24.2589 63.033 23.8655C63.0201 23.6461 63.069 23.4274 63.1743 23.2342C63.2796 23.0409 63.4371 22.8807 63.629 22.7717C63.8209 22.6627 64.0396 22.6091 64.2605 22.617C64.4813 22.6249 64.6956 22.694 64.8791 22.8164C65.0098 22.8946 65.1219 23 65.2076 23.1254C65.2933 23.2508 65.3507 23.3932 65.3757 23.5428C65.4008 23.6923 65.393 23.8455 65.3528 23.9918C65.3126 24.138 65.241 24.2739 65.1429 24.39C64.9315 24.7003 64.6233 24.9327 64.2657 25.0512C63.9081 25.1697 63.5212 25.1678 63.1649 25.0456Z" fill="#0F84F0"/>
<path id="Vector_13" d="M58.4176 15.0798C58.4176 14.6864 58.2857 14.293 58.2857 13.8996C58.246 13.7698 58.2358 13.633 58.2557 13.4988C58.2757 13.3646 58.3252 13.2365 58.4009 13.1236C58.4765 13.0108 58.5764 12.916 58.6933 12.8461C58.8102 12.7762 58.9412 12.733 59.0769 12.7195C59.3741 12.6375 59.6917 12.6738 59.9625 12.8206C60.2332 12.9675 60.4359 13.2134 60.5275 13.5062C60.5969 13.6258 60.6335 13.7615 60.6335 13.8996C60.6335 14.0377 60.5969 14.1734 60.5275 14.293C60 14.9487 59.4726 15.4732 58.4176 15.0798Z" fill="#0F84F0"/>
<path id="Vector_14" d="M44.3076 24.39C45.89 23.9966 46.5494 24.1277 46.6812 24.7834C46.8131 25.439 46.2856 26.2258 44.835 26.3569L44.4395 26.0947L44.3076 24.39Z" fill="#0F84F0"/>
</g>
<defs>
<clipPath id="clip0_71_32">
<rect width="144" height="115" fill="white"/>
</clipPath>
</defs>
</svg>
