<svg width="41" height="40" viewBox="0 0 41 40" fill="none" xmlns="http://www.w3.org/2000/svg">
<path d="M21.4049 39.8089C22.281 38.6209 22.0393 37.372 21.707 36.1535C21.2453 34.6676 20.3377 33.3626 19.1094 32.4188C17.8811 31.4749 16.3926 30.9385 14.8493 30.8837C13.3992 30.8532 11.9188 30.8837 10.4687 30.8837C10.3107 30.8755 10.1607 30.8106 10.0458 30.7009C7.99149 28.3858 5.00066 27.7766 2.25151 29.1169H2.04004C3.45993 26.1316 5.81634 24.5476 9.13949 24.3953V23.2682H14.0034V24.4563H14.4263C17.4108 24.4472 20.2957 25.5383 22.538 27.5243C24.7803 29.5104 26.2253 32.2543 26.6011 35.2397C26.7065 35.8325 26.7369 36.4364 26.6917 37.0369C26.6604 37.7232 26.3878 38.3759 25.9229 38.8782C25.458 39.3805 24.831 39.6996 24.1541 39.7784C23.2477 39.8698 22.3414 39.8089 21.4049 39.8089Z" fill="black"/>
<path d="M35.6042 18.303H33.2478V17.846C33.2478 14.1602 33.278 10.4743 33.2478 6.81894C33.2603 6.15462 33.1153 5.49687 32.8249 4.90043C32.5345 4.30399 32.1071 3.78609 31.5781 3.38981C31.0492 2.99353 30.4341 2.73033 29.7839 2.62209C29.1337 2.51386 28.4673 2.56373 27.8401 2.76755C25.9067 3.34632 24.7285 5.29586 24.9399 7.45863C25.1412 8.89764 25.7615 10.244 26.7223 11.3273C27.387 12.1497 28.0818 12.9113 28.686 13.7642C30.5893 16.5057 30.6497 19.3387 29.1392 22.263C28.4139 23.5974 27.4748 24.8016 26.3598 25.827L26.0577 26.0402L26.813 26.7104L25.1816 28.3553C24.2641 27.1666 23.1501 26.1464 21.8887 25.3396C22.4929 24.7608 23.0669 24.1821 23.6711 23.5424L24.4263 24.3953C25.7254 23.1464 26.8734 21.867 27.4776 20.1916C27.7325 19.5764 27.8561 18.9141 27.8405 18.2476C27.8249 17.581 27.6704 16.9253 27.387 16.323C27.0601 15.6283 26.6546 14.9741 26.1786 14.3734C25.3931 13.3377 24.4566 12.3934 23.7919 11.2663C22.4325 9.04264 22.1001 6.63617 23.0971 4.16878C23.6752 2.77776 24.7138 1.63191 26.0359 0.926483C27.358 0.221057 28.8818 -0.000291392 30.3476 0.300156C31.8152 0.585974 33.1411 1.37118 34.1034 2.52448C35.0657 3.67778 35.6062 5.12925 35.6344 6.63617C35.6646 10.4439 35.6344 14.282 35.6344 18.0897C35.6344 18.1507 35.6042 18.2116 35.6042 18.303Z" fill="black"/>
<path d="M0.288086 34.9046C0.288086 33.62 0.794163 32.3881 1.69499 31.4798C2.59581 30.5715 3.81759 30.0612 5.09154 30.0612C5.73137 30.0531 6.36643 30.1732 6.95987 30.4145C7.55331 30.6559 8.09332 31.0136 8.54859 31.467C9.00385 31.9204 9.36531 32.4604 9.61199 33.0557C9.85868 33.651 9.98568 34.2898 9.98563 34.935C9.97765 36.2305 9.46169 37.4701 8.5504 38.3832C7.6391 39.2964 6.40651 39.8089 5.12175 39.8089C3.83701 39.8008 2.60762 39.2806 1.70199 38.3617C0.796355 37.4429 0.288061 36.2 0.288086 34.9046ZM2.67471 34.9046C2.67072 35.2326 2.73085 35.5582 2.85167 35.8628C2.97249 36.1674 3.15163 36.445 3.37886 36.6798C3.6061 36.9146 3.87697 37.1019 4.17602 37.2311C4.47507 37.3604 4.79643 37.4289 5.12175 37.4329C5.77876 37.4329 6.40886 37.1697 6.87343 36.7013C7.33801 36.2328 7.59901 35.5975 7.59901 34.935C7.603 34.6085 7.54266 34.2843 7.42148 33.9814C7.30029 33.6786 7.12068 33.403 6.89305 33.1706C6.66542 32.9382 6.39431 32.7538 6.09544 32.6279C5.79656 32.502 5.47587 32.4372 5.15196 32.4372C4.82697 32.429 4.50368 32.4869 4.20143 32.6076C3.89918 32.7283 3.62418 32.9093 3.3929 33.1396C3.16162 33.37 2.97881 33.645 2.8554 33.9483C2.732 34.2516 2.67054 34.5768 2.67471 34.9046Z" fill="black"/>
<path d="M10.0459 39.1692C11.6168 37.1283 11.9794 34.935 11.1335 32.4981H14.6983C17.81 32.559 20.3779 35.1483 20.3779 38.2249C20.3779 38.8341 20.0455 39.1997 19.4715 39.1997H10.0459V39.1692Z" fill="black"/>
<path d="M36.7221 36.4886V37.6157H40.861V39.8089H28.0518V37.6461H32.1604V36.4886H36.7221Z" fill="black"/>
<path d="M33.5801 19.5823H35.3021V31.3101H33.5801V19.5823Z" fill="black"/>
<path d="M32.7939 32.7114H36.0869V35.0874H32.7939V32.7114Z" fill="black"/>
</svg>
