<svg width="146" height="191" viewBox="0 0 146 191" fill="none" xmlns="http://www.w3.org/2000/svg">
<g id="&#208;&#188;&#208;&#176;&#209;&#136;&#208;&#184;&#208;&#189;&#208;&#186;&#208;&#176; 1" clip-path="url(#clip0_84_328)">
<path id="Vector" d="M15.5161 120.309L9.82096 120.678C7.46861 120.802 5.05435 120.74 4.3734 117.848C3.69246 114.957 4.37341 112.25 7.03528 111.327C9.69715 110.404 13.4114 110.281 16.6304 110.097C17.0018 110.035 17.8066 111.389 17.9304 112.127C18.0498 113.888 18.0704 115.654 17.9923 117.418L20.1589 113.727C23.2541 108.62 26.1017 103.391 29.3826 98.4691C33.7159 91.8862 39.6586 88.3795 48.0157 88.5641C64.9155 88.9332 81.8152 88.8101 98.7769 88.6256C106.143 88.5025 111.529 91.7017 115.491 97.3617C119.453 103.022 122.796 109.42 126.448 115.511C126.767 116.167 127.287 116.705 127.934 117.049C127.81 115.818 127.872 114.588 127.686 113.419C127.253 110.65 128.429 109.543 131.091 109.851C133.753 110.158 135.238 110.035 137.219 110.589C139.2 111.143 141.553 113.603 141.491 116.618C141.429 119.633 140.129 120.678 137.467 120.678C134.805 120.678 132.576 120.432 130.038 120.309C133.01 123.385 135.734 126.4 138.705 129.169C143.1 133.352 145.267 138.151 144.957 144.426C144.462 153.531 144.833 162.698 144.833 171.803C144.845 173.14 144.763 174.477 144.586 175.802C143.967 179.309 142.295 180.785 138.705 180.785H8.14955C2.88771 180.785 0.968702 179.247 0.906799 173.956C0.721087 162.513 0.721072 151.009 0.968687 139.504C1.07481 137.379 1.87945 135.348 3.25914 133.721C6.41624 129.907 9.94476 126.523 13.4114 122.955C14.2172 122.23 15.0646 121.552 15.9494 120.925L15.5161 120.309ZM121.434 115.88L121.991 114.895C118.524 109.666 115.058 104.437 111.653 99.2073C108.929 95.0854 105.091 93.3012 100.201 93.3012L54.7013 92.9321C50.8014 92.9321 46.9014 93.3628 43.0015 93.4858C41.4938 93.5208 40.0163 93.9131 38.6919 94.63C37.3675 95.347 36.2346 96.3679 35.3873 97.6078C31.673 103.145 28.0207 108.682 24.3684 114.28C24.1519 114.788 24.0262 115.329 23.997 115.88H121.434ZM80.701 158.022L99.2102 156.669C106.082 156.238 110.167 153.039 112.024 146.456C113.262 142.088 112.024 139.258 107.691 138.089C103.934 137.077 100.068 136.519 96.1769 136.428C80.5152 136.244 64.7916 136.244 49.13 136.428C45.2453 136.517 41.3915 137.138 37.6777 138.274C36.7099 138.667 35.8324 139.252 35.0983 139.992C34.3641 140.732 33.7886 141.613 33.4063 142.58C31.9207 147.687 38.0491 156.115 43.3729 156.484C55.8156 157.346 80.701 158.207 80.701 158.022ZM29.8778 178.632H115.8C115.553 177.894 115.553 177.34 115.243 176.971C110.724 170.696 104.967 166.266 96.8579 166.205C80.7628 166.143 64.6678 166.082 48.6347 166.266C40.7729 166.328 32.354 171.926 29.8778 178.632ZM120.691 150.64C126.448 150.578 132.019 149.717 136.972 146.579C140.624 144.241 141.738 138.028 139.014 134.644C138.135 133.648 136.929 132.994 135.61 132.798C128.986 132.06 118.772 137.843 115.862 143.934C112.953 150.024 113.51 150.64 120.072 150.64H120.691ZM24.9874 150.947L31.1778 149.84C30.5588 147.502 29.9397 145.164 29.2588 142.888C29.0109 142.313 28.6536 141.79 28.2064 141.35C23.6874 135.628 17.3113 133.537 10.3781 132.798C9.20192 132.675 7.53051 133.598 6.72576 134.582C3.81628 138.028 5.05436 144.364 8.8924 146.702C13.7828 149.655 19.2304 150.578 24.9874 150.947ZM132.515 175.925C133.938 175.925 135.486 176.233 136.786 175.802C138.086 175.371 140.005 174.51 140.686 173.341C143.967 167.804 140.438 161.591 134 161.591C131.026 161.7 128.065 162.049 125.148 162.636C121.867 163.19 120.629 165.589 121.619 168.789C123.415 174.326 125.829 175.925 132.515 175.925ZM13.1019 175.925H15.578C19.9732 175.864 24.8017 171.126 24.2446 166.758C24.0589 165.343 22.5113 163.313 21.1494 162.883C18.0667 162.023 14.8798 161.588 11.6781 161.591C6.47815 161.529 4.06389 164.236 4.12579 169.465C4.1877 174.695 5.7972 175.925 11.5543 175.925H13.1019Z" fill="#0F84F0" stroke="#0F84F0" stroke-miterlimit="10"/>
<path id="Vector_2" d="M102.429 42.669H43.3108C43.3047 40.8347 43.7959 39.0326 44.7327 37.452C45.6695 35.8715 47.0173 34.5709 48.6346 33.6868C53.0109 31.2502 57.6393 29.2907 62.4392 27.8423C65.0391 27.0425 65.9058 25.9966 65.8439 23.4127C65.7201 17.199 65.9058 10.9237 65.7201 4.64851C65.6582 2.00306 66.5248 0.895667 69.3105 1.08023C71.5713 1.34661 73.8546 1.36725 76.1199 1.14176C79.1532 0.834149 79.958 2.06459 79.8961 4.71003C79.7104 11.1083 79.8961 17.4451 79.7723 23.7818C79.7723 26.1812 80.6389 26.981 82.9913 27.7807C87.8489 29.3136 92.5531 31.2908 97.0435 33.6868C100.201 35.4095 101.996 38.5471 102.429 42.669Z" fill="#0F84F0" stroke="#0F84F0" stroke-miterlimit="10"/>
<path id="Vector_3" d="M144.771 182.939C144.648 182.385 144.771 182.693 144.771 183C145.205 190.26 144.957 190.568 137.591 190.506H129.853C124.405 190.383 123.538 189.337 124.653 183L144.771 182.939Z" fill="#0F84F0" stroke="#0F84F0" stroke-miterlimit="10"/>
<path id="Vector_4" d="M21.2732 182.939C21.8303 189.706 21.2732 190.322 15.5161 190.445H5.36387C1.46393 190.445 0.9068 189.829 0.844896 186.015C0.782992 184.723 0.844896 183.37 0.844896 182.877L21.2732 182.939Z" fill="#0F84F0" stroke="#0F84F0" stroke-miterlimit="10"/>
<path id="Vector_5" d="M71.1059 61.1868C71.0233 58.9509 71.0646 56.7122 71.2297 54.4809C71.2916 53.6811 72.2201 53.0044 72.7773 52.2661C73.3963 53.0044 74.4487 53.6811 74.4487 54.4194C74.6344 58.972 74.6344 63.5861 74.4487 68.1388C74.4487 68.877 73.3963 69.6153 72.8392 70.3536C72.282 69.6153 71.2916 69.0001 71.2297 68.2003C71.0641 65.8663 71.0227 63.5252 71.1059 61.1868Z" fill="#0F84F0" stroke="#0F84F0" stroke-miterlimit="10"/>
<path id="Vector_6" d="M90.1102 68.262C89.1817 68.5696 88.2531 69.1233 87.4484 69.0003C86.6436 68.8772 85.7151 68.0774 85.5913 67.4622C84.6008 62.7866 83.796 58.0494 83.0532 53.3122C82.9913 52.7585 83.8579 51.7741 84.477 51.4665C85.096 51.1589 86.1484 52.0817 86.2103 52.6354C87.2008 57.4342 88.0055 62.2329 88.8722 67.0316C89.3055 67.4622 89.6769 67.8929 90.1102 68.262Z" fill="#0F84F0" stroke="#0F84F0" stroke-miterlimit="10"/>
<path id="Vector_7" d="M56.6821 67.4005C57.6107 62.2326 58.4154 57.4955 59.4059 52.8198C59.5297 52.2046 60.644 51.8354 61.3249 51.4048C61.7583 52.0815 62.6249 52.8198 62.563 53.435C61.8821 58.1107 61.0773 62.7248 60.0868 67.2774C59.963 68.0157 58.8488 68.6924 58.044 68.9385C57.2393 69.1846 57.0536 67.7696 56.6821 67.4005Z" fill="#0F84F0" stroke="#0F84F0" stroke-miterlimit="10"/>
<path id="Vector_8" d="M102.986 63.6481C102.677 64.1403 102.305 65.0631 101.872 65.1861C101.439 65.3092 100.015 64.94 99.8292 64.5094C97.9721 59.7107 96.2388 54.9735 94.5674 50.1133C94.4436 49.6826 95.0626 48.5752 95.434 48.5137C95.8054 48.4522 97.2911 48.6983 97.4769 49.1904C99.3959 53.8661 101.129 58.6648 102.986 63.6481Z" fill="#0F84F0" stroke="#0F84F0" stroke-miterlimit="10"/>
<path id="Vector_9" d="M51.3584 49.8672C49.4394 55.035 47.7061 59.8337 45.787 64.5709C45.6013 65.0016 44.2394 65.3707 43.7442 65.1246C43.4502 64.8936 43.2215 64.5908 43.0805 64.2458C42.9394 63.9007 42.8908 63.5252 42.9395 63.1559C44.549 58.5418 46.2204 53.9276 48.0156 49.375C48.2013 48.8213 49.3775 48.3291 49.9346 48.4522C50.4917 48.5752 50.9251 49.4365 51.3584 49.8672Z" fill="#0F84F0" stroke="#0F84F0" stroke-miterlimit="10"/>
<path id="Vector_10" d="M38.4204 75.2142C39.2871 72.8764 39.968 70.8462 40.8966 68.939C41.1442 68.4468 42.3823 67.9546 42.8775 68.2007C43.1803 68.4162 43.4239 68.7036 43.5861 69.0368C43.7483 69.37 43.8239 69.7382 43.806 70.1079C43.2622 72.0688 42.5583 73.9823 41.7013 75.8294C41.4886 76.1346 41.2002 76.3799 40.8639 76.5416C40.5277 76.7033 40.1551 76.7759 39.7823 76.7523C39.2252 76.6292 38.7918 75.7064 38.4204 75.2142Z" fill="#0F84F0" stroke="#0F84F0" stroke-miterlimit="10"/>
<path id="Vector_11" d="M102.924 67.5854C103.729 68.0776 104.41 68.2007 104.534 68.5698C105.401 70.7231 106.267 72.8763 106.948 75.1526C107.072 75.5218 106.391 76.5061 105.958 76.6907C105.524 76.8753 104.286 76.5676 104.101 76.137C103.218 73.9856 102.453 71.7881 101.81 69.5542C101.686 69.062 102.491 68.3237 102.924 67.5854Z" fill="#0F84F0" stroke="#0F84F0" stroke-miterlimit="10"/>
<path id="Vector_12" d="M54.6393 79.0897C55.0107 77.1825 55.1964 75.2753 55.6917 73.4297C55.8774 72.7529 56.9917 72.4453 57.6726 71.9531C58.1059 72.6299 58.9107 73.3681 58.9107 74.1064C58.7665 75.9196 58.4346 77.7132 57.9202 79.4588C57.7434 79.8416 57.4862 80.1824 57.1658 80.4583C56.8455 80.7342 56.4695 80.9388 56.0631 81.0584C55.2583 81.1814 54.3298 80.6277 53.4631 80.3201L54.6393 79.0897Z" fill="#0F84F0" stroke="#0F84F0" stroke-miterlimit="10"/>
<path id="Vector_13" d="M86.5818 73.6142C86.8913 73.2451 87.3865 72.1377 87.9437 72.0762C88.3562 72.1098 88.7537 72.2457 89.0997 72.4714C89.4458 72.6971 89.7294 73.0054 89.9246 73.3681C90.4195 75.3453 90.7303 77.3635 90.8532 79.3973C90.7994 79.7548 90.6505 80.0915 90.422 80.3727C90.1934 80.6539 89.8935 80.8694 89.5532 80.9968C89.1884 80.9635 88.8381 80.8388 88.5349 80.6344C88.2318 80.43 87.9858 80.1525 87.8199 79.8279C87.2945 77.7805 86.8812 75.7062 86.5818 73.6142Z" fill="#0F84F0" stroke="#0F84F0" stroke-miterlimit="10"/>
<path id="Vector_14" d="M74.6961 77.9208L72.9628 82.1043C72.4676 80.7508 71.7247 79.3973 71.6628 78.0438C71.6009 76.6904 72.3438 75.1523 72.7152 73.7373L74.6961 77.9208Z" fill="#0F84F0" stroke="#0F84F0" stroke-miterlimit="10"/>
</g>
<defs>
<clipPath id="clip0_84_328">
<rect width="144.793" height="190.041" fill="white" transform="translate(0.473389 0.772461)"/>
</clipPath>
</defs>
</svg>
