<svg width="58" height="51" viewBox="0 0 58 51" fill="none" xmlns="http://www.w3.org/2000/svg">
<path d="M0.00478888 15.0749H52.9619V15.2963C52.9619 21.0492 52.9619 26.802 52.9619 32.5549C52.9619 35.0085 51.3532 37.0118 48.9512 37.5433C48.6415 37.6123 48.3251 37.6477 48.0076 37.6487C33.6517 37.654 19.2955 37.6552 4.93893 37.6524C2.64131 37.6524 0.506782 35.8683 0.110695 33.6156C0.0450043 33.2464 0.0111657 32.8723 0.00955283 32.4974C0.00390453 26.7709 0.00249478 21.0444 0.00531893 15.3179L0.00478888 15.0749ZM28.9981 18.8412H8.84686V21.3159H28.9981V18.8412Z" fill="#0EAD00"/>
<path d="M52.9527 8.77531H0.0273573C0.017531 8.75129 0.0107706 8.72614 0.00723494 8.70045C0.0125302 7.3566 -0.0266523 6.01171 0.0363616 4.66892C0.109437 3.1105 0.848657 1.87105 2.10629 0.948967C2.99113 0.301033 3.99459 0 5.09336 0C19.3553 0 33.6184 0.00087803 47.8825 0.00263538C50.3479 0.00263538 52.3633 1.65068 52.86 4.05314C52.9229 4.36297 52.9555 4.67812 52.9575 4.9942C52.9686 6.19992 52.9622 7.40564 52.9622 8.61188C52.9617 8.66407 52.9564 8.71521 52.9527 8.77531Z" fill="#0EAD00"/>
<path d="M55.5117 24.1207C55.5758 24.4676 55.6409 24.8139 55.7029 25.1614C56.0693 27.2136 56.4352 29.2662 56.8006 31.3191C57.1257 33.145 57.4496 34.9711 57.7722 36.7973C57.8469 37.2191 57.9311 37.6408 57.9761 38.0626C58.2303 40.5352 56.4532 42.9181 53.9909 43.3815C51.9988 43.7564 49.9998 44.0975 48.004 44.4528C46.3448 44.7481 44.6869 45.0429 43.0302 45.3375L37.3144 46.3513L31.8926 47.3161L25.9619 48.3673C24.3027 48.6618 22.6449 48.9565 20.9885 49.2514C19.227 49.5642 17.4649 49.8762 15.7023 50.1872C14.3255 50.4324 12.9487 50.6881 11.5677 50.9253C10.3121 51.1454 9.01967 50.8751 7.95916 50.1707C6.89864 49.4662 6.15169 48.3819 5.87367 47.1431C5.61685 46.0091 5.44105 44.8567 5.23082 43.7116C5.02431 42.5869 4.8192 41.4611 4.61551 40.3343C4.60492 40.2768 4.59856 40.2194 4.58691 40.1408C4.79131 40.1503 4.98035 40.1677 5.1694 40.1677C19.3862 40.1677 33.6028 40.1659 47.8192 40.1624C50.64 40.1624 52.8323 38.9335 54.3557 36.5701C55.1384 35.3575 55.4815 34.0026 55.4783 32.5575C55.472 29.8161 55.4783 27.0746 55.4783 24.3331C55.4783 24.2635 55.4783 24.1939 55.4783 24.1222L55.5117 24.1207Z" fill="#0EAD00"/>
</svg>
