<svg width="64" height="47" viewBox="0 0 64 47" fill="none" xmlns="http://www.w3.org/2000/svg">
<path d="M6.63684 14.3001L4.58623 13.8636C3.6646 13.7028 2.65082 13.7028 2.39737 12.5083C2.14392 11.3138 2.81209 10.5328 4.03325 10.0963C4.96648 9.77173 5.93208 9.54838 6.91332 9.43013C7.78887 9.31527 8.01928 9.63687 7.85799 10.5098L7.37414 12.8988L7.60454 13.0137C7.76583 12.761 7.9732 12.5313 8.13448 12.2556L12.973 4.56017C14.4015 2.286 16.4521 1.13742 19.1249 0.815818C28.0185 -0.263842 36.8892 -0.332753 45.7598 0.976621C47.7644 1.27525 49.3542 2.19411 50.4371 3.84806C52.1882 6.44384 53.824 9.10853 55.529 11.7273L56.3124 13.0137L56.5889 12.9448C56.4507 12.1637 56.3124 11.3827 56.1511 10.6246C55.9899 9.86659 56.1742 9.2923 57.1419 9.4531C58.2087 9.60122 59.2533 9.87895 60.2524 10.2801C60.7593 10.4638 61.2201 11.0381 61.4505 11.5665C61.9113 12.6232 61.4274 13.4501 60.2754 13.7028C59.1234 13.9555 58.4322 14.0704 57.3953 14.2541C58.6856 15.7703 59.8837 17.0796 60.9897 18.4809C62.0956 19.8822 63.2477 21.7429 63.6393 23.7414C63.7131 24.0188 63.7518 24.3043 63.7545 24.5913C63.8467 29.5991 63.9158 34.6299 63.985 39.6376C63.985 39.7984 64.031 40.0052 63.9619 40.12C63.2246 41.3835 63.4781 42.8307 63.1785 44.186C63.0256 44.9318 62.6277 45.6056 62.0477 46.1007C61.4676 46.5958 60.7386 46.8839 59.9759 46.9196C57.3953 47.0115 54.7917 47.0115 52.1882 46.9426C50.8518 46.9196 49.9302 45.817 49.861 44.4846V43.359H14.102C14.102 43.7036 14.125 44.0711 14.102 44.4387C14.0559 45.817 13.1804 46.8966 11.821 46.9426C9.19435 47.0115 6.56772 47.0345 3.94109 46.9196C2.00567 46.8047 0.692361 45.1508 0.646279 43.0834C0.623239 42.2334 0.738439 41.3605 0.139383 40.6024C-0.0219016 40.4187 0.00113763 40.0511 0.00113763 39.7755C0.0702595 34.6988 0.116341 29.6221 0.231544 24.5224C0.277625 22.7536 1.08405 21.1686 2.09784 19.7673C3.11162 18.366 4.58623 16.6891 5.85346 15.173C6.03779 14.9203 6.26819 14.7136 6.63684 14.3001ZM31.9354 12.3705H52.3034C53.5706 12.3705 53.7549 12.2097 53.1098 11.0841C51.7734 8.69504 50.3679 6.32898 48.8933 4.03183C48.2943 3.06702 47.3035 2.63057 46.1285 2.53868C36.7261 1.82659 27.2831 1.82659 17.8807 2.53868C16.6826 2.63057 15.6688 3.09 15.0236 4.07777C13.5951 6.37492 12.1896 8.69504 10.8763 11.0611C10.2081 12.2326 10.3925 12.3705 11.7288 12.3705H31.9354ZM32.0967 25.0737C27.9494 25.2575 23.8251 25.3953 19.6778 25.6021C17.6733 25.7169 16.1987 26.7277 15.254 28.5194C14.678 29.5761 14.7241 30.472 15.7609 31.1152C16.7978 31.7584 18.065 32.3787 19.3092 32.6084C21.3828 33.0219 23.5026 33.1597 25.5993 33.2975C31.9815 33.6651 38.3638 33.6421 44.6769 32.6313C45.852 32.4476 47.004 31.8962 48.0178 31.299C49.0316 30.7017 49.3542 29.5761 48.6169 28.3357C47.6722 26.6817 46.2667 25.7169 44.3774 25.625C40.2761 25.3953 36.1749 25.2575 32.0967 25.0737ZM50.6905 39.0174L50.0915 38.581C48.2021 37.2946 46.1054 36.7432 43.8244 36.7432H21.5902C20.3742 36.7357 19.1588 36.797 17.9498 36.927C16.2909 37.1337 14.8393 37.8229 13.3417 38.9944L50.6905 39.0174ZM2.51257 24.017C2.99642 24.7521 3.29595 25.671 3.94109 26.0845C5.7613 27.233 7.71975 28.1749 9.63212 29.2086C10.3694 29.5991 10.9454 29.3694 11.3832 28.7721C11.821 28.1749 12.6504 27.0033 13.2725 26.1074C13.6642 25.5561 13.549 25.2115 12.8809 24.9589L4.56319 21.8118C4.2867 21.7199 3.75676 21.7658 3.64156 21.9496C3.2123 22.6087 2.83484 23.2999 2.51257 24.017ZM61.4505 23.9941C61.1357 23.3083 60.7818 22.641 60.3906 21.9955C60.283 21.8979 60.1543 21.8264 60.0144 21.7866C59.8745 21.7467 59.7273 21.7396 59.5842 21.7658C56.7041 22.8225 53.824 23.9251 50.967 25.0048C50.4601 25.2115 50.3219 25.5561 50.6444 25.9926C51.3126 26.9574 51.9577 27.9681 52.695 28.864C52.9485 29.1626 53.6167 29.4613 53.9392 29.3464C56.1742 28.4965 58.4322 27.6006 60.2293 25.9466C60.7362 25.4642 61.0127 24.7062 61.4505 23.9941ZM7.99624 33.6191C5.71521 33.8029 4.72447 34.6298 4.37886 36.8351C4.24061 37.6851 4.65535 38.4891 5.50785 38.6958C7.14374 39.1323 8.77962 39.362 10.1621 37.9607C10.7381 37.3864 11.4293 36.904 12.0744 36.3527C12.7196 35.8014 12.7887 35.0893 11.821 34.7447C10.8533 34.4001 9.26347 33.9866 7.99624 33.6191ZM56.4507 39.0404C57.0497 38.9715 57.7179 39.0174 58.2248 38.7647C58.7317 38.512 59.3538 38.0296 59.5381 37.5243C60.045 36.1689 58.7086 34.0556 57.2571 33.8718C55.4635 33.6595 53.6466 33.9707 52.0269 34.7677C51.2204 35.1582 51.1744 35.7325 51.8886 36.3298C52.5839 36.9839 53.3229 37.5902 54.1005 38.1445C54.7917 38.6039 56.4046 39.1093 56.4507 39.0404Z" fill="#0F84F0"/>
</svg>
