<svg width="54" height="46" viewBox="0 0 54 46" fill="none" xmlns="http://www.w3.org/2000/svg">
<g id="&#208;&#134;&#209;&#129;&#209;&#130;&#208;&#190;&#209;&#128;&#209;&#150;&#209;&#143;">
<g id="&#208;&#151;&#208;&#189;&#208;&#176;&#208;&#186; &#209;&#135;&#208;&#176;&#209;&#129;&#208;&#190;&#208;&#178;" filter="url(#filter0_i_84_207)">
<path id="Vector" d="M0 22.9958H7.63662C7.83466 15.7133 10.6238 9.667 16.2845 5.06102C20.4403 1.67931 25.2534 0.0349582 30.611 0.000450877C41.0622 -0.0655631 50.3747 7.12396 52.9417 17.2316C55.5553 27.5223 50.9253 38.1835 41.6338 43.2141C32.4984 48.1652 21.3885 46.3033 14.5201 39.3238L18.1313 35.7335C21.6376 39.1182 25.9135 40.9186 30.8975 40.8646C35.3055 40.8151 39.1973 39.3058 42.507 36.3817C45.5517 33.7066 47.5927 30.0729 48.2929 26.081C48.9932 22.089 48.3107 17.9776 46.3583 14.426C42.2189 6.90792 33.6056 3.40017 25.3974 5.91621C17.4937 8.33772 12.7392 15.6383 12.8172 22.9868H20.3188L10.1166 33.162C9.9006 32.9309 9.63054 32.6219 9.34098 32.3323C6.37835 29.3667 3.41372 26.4025 0.447096 23.4399C0.307778 23.3178 0.160957 23.2046 0.00749976 23.1008L0 22.9958Z" fill="white"/>
<path id="Vector_2" d="M40.8866 28.9466C40.2745 29.9803 39.6728 30.996 39.0592 32.0298C38.8777 31.9292 38.7246 31.8497 38.5761 31.7627L28.539 25.8079C28.3004 25.6669 28.0889 25.5574 28.0889 25.1898C28.1069 21.157 28.1009 17.1241 28.1024 13.0912C28.1024 13.0072 28.1189 12.9232 28.1309 12.8047H31.9492V13.4393C31.9492 16.6695 31.9492 19.8997 31.9402 23.1284C31.925 23.2892 31.9602 23.4508 32.0408 23.5908C32.1214 23.7309 32.2435 23.8424 32.3903 23.91C35.0548 25.4659 37.7059 27.0502 40.3615 28.6255C40.525 28.7231 40.6915 28.8236 40.8866 28.9466Z" fill="white"/>
</g>
</g>
<defs>
<filter id="filter0_i_84_207" x="0" y="0" width="54.665" height="47" filterUnits="userSpaceOnUse" color-interpolation-filters="sRGB">
<feFlood flood-opacity="0" result="BackgroundImageFix"/>
<feBlend mode="normal" in="SourceGraphic" in2="BackgroundImageFix" result="shape"/>
<feColorMatrix in="SourceAlpha" type="matrix" values="0 0 0 0 0 0 0 0 0 0 0 0 0 0 0 0 0 0 127 0" result="hardAlpha"/>
<feOffset dx="1" dy="1"/>
<feGaussianBlur stdDeviation="0.5"/>
<feComposite in2="hardAlpha" operator="arithmetic" k2="-1" k3="1"/>
<feColorMatrix type="matrix" values="0 0 0 0 0 0 0 0 0 0 0 0 0 0 0 0 0 0 0.3 0"/>
<feBlend mode="normal" in2="shape" result="effect1_innerShadow_84_207"/>
</filter>
</defs>
</svg>
