<svg width="48" height="63" viewBox="0 0 48 63" fill="none" xmlns="http://www.w3.org/2000/svg">
<g id="&#208;&#188;&#208;&#176;&#209;&#136;&#208;&#184;&#208;&#189;&#208;&#186;&#208;&#176; 1" clip-path="url(#clip0_84_214)" filter="url(#filter0_i_84_214)">
<path id="Vector" d="M4.98659 39.6272L3.0986 39.7495C2.31878 39.7903 1.51844 39.7699 1.2927 38.8114C1.06696 37.8528 1.2927 36.9554 2.17513 36.6495C3.05756 36.3436 4.28886 36.3028 5.35598 36.2416C5.47911 36.2212 5.74589 36.6699 5.78693 36.9146C5.82652 37.4985 5.83337 38.084 5.80745 38.6686L6.5257 37.4449C7.55178 35.7521 8.49578 34.0186 9.58342 32.387C11.0199 30.2047 12.99 29.0422 15.7604 29.1034C21.3628 29.2257 26.9652 29.185 32.5881 29.1238C35.0302 29.083 36.8156 30.1435 38.129 32.0198C39.4423 33.8962 40.5505 36.0173 41.7613 38.0364C41.8671 38.2538 42.0395 38.4323 42.2538 38.5462C42.2128 38.1383 42.2333 37.7304 42.1717 37.3429C42.0281 36.4252 42.418 36.0581 43.3004 36.16C44.1828 36.262 44.6753 36.2212 45.332 36.4048C45.9887 36.5883 46.7685 37.4041 46.748 38.4035C46.7275 39.4028 46.2966 39.7495 45.4141 39.7495C44.5317 39.7495 43.7929 39.668 42.9515 39.6272C43.9366 40.6469 44.8395 41.6463 45.8246 42.564C47.2816 43.9509 47.9998 45.5417 47.8972 47.622C47.7331 50.6404 47.8562 53.6793 47.8562 56.6977C47.8602 57.141 47.8327 57.584 47.7741 58.0234C47.5689 59.1859 47.0148 59.6754 45.8246 59.6754H2.54452C0.800183 59.6754 0.164017 59.1655 0.143496 57.4116C0.081931 53.6181 0.081926 49.8042 0.164012 45.9904C0.199194 45.286 0.465936 44.6125 0.923314 44.0733C1.96991 42.8088 3.13964 41.6871 4.28885 40.5041C4.55598 40.2638 4.83692 40.0391 5.13024 39.8311L4.98659 39.6272ZM40.099 38.1587L40.2837 37.8324C39.1345 36.0988 37.9853 34.3653 36.8566 32.6317C35.9537 31.2652 34.6813 30.6738 33.0601 30.6738L17.9768 30.5514C16.6839 30.5514 15.391 30.6942 14.0982 30.735C13.5984 30.7466 13.1086 30.8766 12.6695 31.1143C12.2305 31.352 11.8549 31.6904 11.574 32.1014C10.3427 33.937 9.13195 35.7725 7.92118 37.6285C7.8494 37.7967 7.80773 37.9762 7.79805 38.1587H40.099ZM26.5958 52.1293L32.7318 51.6806C35.0097 51.5378 36.3641 50.4773 36.9797 48.295C37.3902 46.847 36.9797 45.9088 35.5432 45.5213C34.2978 45.1857 33.0162 45.0008 31.7262 44.9706C26.5343 44.9095 21.3218 44.9095 16.1298 44.9706C14.842 45 13.5645 45.2059 12.3333 45.5825C12.0125 45.713 11.7216 45.9068 11.4782 46.1522C11.2348 46.3976 11.044 46.6894 10.9173 47.0101C10.4248 48.7029 12.4564 51.497 14.2213 51.6194C18.3461 51.9049 26.5958 52.1905 26.5958 52.1293ZM9.7476 58.9616H38.2316C38.1495 58.7168 38.1495 58.5333 38.0469 58.4109C36.5488 56.3306 34.6403 54.8622 31.952 54.8418C26.6163 54.8214 21.2807 54.801 15.9656 54.8622C13.3594 54.8826 10.5685 56.7385 9.7476 58.9616ZM39.8528 49.6819C41.7613 49.6615 43.6082 49.376 45.2499 48.3358C46.4607 47.5608 46.8301 45.5009 45.9272 44.3792C45.6357 44.0489 45.2357 43.8321 44.7985 43.7673C42.6027 43.5226 39.2166 45.4397 38.2521 47.4588C37.2876 49.4779 37.4723 49.6819 39.6476 49.6819H39.8528ZM8.12639 49.7838L10.1786 49.4167C9.97334 48.6417 9.76812 47.8667 9.54238 47.1121C9.46021 46.9214 9.34175 46.7483 9.19352 46.6022C7.69544 44.7055 5.58171 44.0121 3.2833 43.7673C2.89339 43.7266 2.3393 44.0325 2.07252 44.3588C1.10801 45.5009 1.51844 47.6016 2.79078 48.3766C4.41199 49.3556 6.21789 49.6615 8.12639 49.7838ZM43.7724 58.0642C44.2444 58.0642 44.7574 58.1662 45.1884 58.0234C45.6193 57.8806 46.2555 57.5951 46.4812 57.2076C47.5689 55.3721 46.3992 53.3122 44.2649 53.3122C43.2789 53.3483 42.2974 53.4643 41.3303 53.6589C40.2427 53.8424 39.8322 54.6378 40.1606 55.6984C40.7557 57.5339 41.5561 58.0642 43.7724 58.0642ZM4.18624 58.0642H5.00711C6.46414 58.0438 8.06483 56.4734 7.88013 55.0254C7.81857 54.5563 7.30553 53.8832 6.85405 53.7405C5.83211 53.4556 4.77564 53.3114 3.71425 53.3122C1.99044 53.2918 1.19009 54.1892 1.21061 55.9227C1.23114 57.6563 1.7647 58.0642 3.67321 58.0642H4.18624Z" fill="white" stroke="white" stroke-miterlimit="10"/>
<path id="Vector_2" d="M33.7988 13.8887H14.2007C14.1987 13.2806 14.3615 12.6832 14.6721 12.1592C14.9826 11.6353 15.4294 11.2041 15.9656 10.9111C17.4163 10.1033 18.9507 9.4537 20.5419 8.97354C21.4038 8.70841 21.6911 8.3617 21.6706 7.50511C21.6295 5.44522 21.6911 3.36493 21.6295 1.28465C21.609 0.407666 21.8963 0.0405561 22.8198 0.101741C23.5692 0.190048 24.3262 0.196888 25.0771 0.122137C26.0827 0.0201624 26.3495 0.428062 26.329 1.30504C26.2674 3.42612 26.329 5.5268 26.2879 7.62748C26.2879 8.42288 26.5752 8.68802 27.355 8.95315C28.9654 9.46131 30.5249 10.1167 32.0134 10.9111C33.06 11.4821 33.6552 12.5223 33.7988 13.8887Z" fill="white" stroke="white" stroke-miterlimit="10"/>
<path id="Vector_3" d="M47.836 60.3896C47.7949 60.206 47.836 60.308 47.836 60.41C47.9796 62.8166 47.8975 62.9185 45.4555 62.8982H42.8903C41.0844 62.8574 40.7971 62.5106 41.1665 60.41L47.836 60.3896Z" fill="white" stroke="white" stroke-miterlimit="10"/>
<path id="Vector_4" d="M6.89502 60.3895C7.07971 62.633 6.89501 62.8369 4.9865 62.8777H1.62096C0.328104 62.8777 0.143412 62.6738 0.12289 61.4093C0.102369 60.981 0.12289 60.5323 0.12289 60.3691L6.89502 60.3895Z" fill="white" stroke="white" stroke-miterlimit="10"/>
<path id="Vector_5" d="M23.4152 20.0281C23.3878 19.2869 23.4015 18.5447 23.4562 17.805C23.4767 17.5399 23.7846 17.3155 23.9693 17.0708C24.1745 17.3155 24.5233 17.5399 24.5233 17.7846C24.5849 19.2939 24.5849 20.8235 24.5233 22.3327C24.5233 22.5774 24.1745 22.8222 23.9898 23.0669C23.8051 22.8222 23.4767 22.6182 23.4562 22.3531C23.4013 21.5793 23.3876 20.8033 23.4152 20.0281Z" fill="white" stroke="white" stroke-miterlimit="10"/>
<path id="Vector_6" d="M29.7155 22.3733C29.4077 22.4753 29.0999 22.6588 28.8331 22.618C28.5663 22.5772 28.2585 22.3121 28.2174 22.1082C27.8891 20.5581 27.6223 18.9877 27.376 17.4173C27.3555 17.2338 27.6428 16.9074 27.848 16.8055C28.0533 16.7035 28.4021 17.0094 28.4226 17.193C28.751 18.7838 29.0178 20.3746 29.3051 21.9654C29.4487 22.1081 29.5719 22.2509 29.7155 22.3733Z" fill="white" stroke="white" stroke-miterlimit="10"/>
<path id="Vector_7" d="M18.6338 22.0878C18.9416 20.3747 19.2084 18.8043 19.5367 17.2542C19.5778 17.0503 19.9472 16.9279 20.1729 16.7852C20.3166 17.0095 20.6039 17.2542 20.5833 17.4582C20.3576 19.0082 20.0908 20.5378 19.7625 22.0471C19.7214 22.2918 19.352 22.5161 19.0853 22.5977C18.8185 22.6793 18.7569 22.2102 18.6338 22.0878Z" fill="white" stroke="white" stroke-miterlimit="10"/>
<path id="Vector_8" d="M33.9838 20.8435C33.8812 21.0066 33.758 21.3126 33.6144 21.3534C33.4707 21.3941 32.9987 21.2718 32.9372 21.129C32.3215 19.5382 31.7469 17.9678 31.1928 16.3566C31.1518 16.2138 31.357 15.8467 31.4801 15.8263C31.6033 15.8059 32.0958 15.8875 32.1574 16.0507C32.7935 17.6007 33.3681 19.1915 33.9838 20.8435Z" fill="white" stroke="white" stroke-miterlimit="10"/>
<path id="Vector_9" d="M16.8688 16.2752C16.2326 17.9884 15.658 19.5792 15.0218 21.1496C14.9603 21.2924 14.5088 21.4147 14.3446 21.3332C14.2472 21.2566 14.1714 21.1562 14.1246 21.0418C14.0778 20.9274 14.0617 20.8029 14.0779 20.6805C14.6114 19.1509 15.1655 17.6213 15.7606 16.112C15.8222 15.9285 16.2121 15.7653 16.3968 15.8061C16.5815 15.8469 16.7251 16.1324 16.8688 16.2752Z" fill="white" stroke="white" stroke-miterlimit="10"/>
<path id="Vector_10" d="M12.5796 24.6778C12.8669 23.9028 13.0926 23.2297 13.4005 22.5975C13.4825 22.4343 13.893 22.2712 14.0571 22.3528C14.1575 22.4242 14.2383 22.5195 14.2921 22.6299C14.3458 22.7404 14.3709 22.8624 14.365 22.985C14.1847 23.635 13.9513 24.2694 13.6672 24.8817C13.5967 24.9829 13.5011 25.0642 13.3896 25.1178C13.2782 25.1714 13.1546 25.1955 13.0311 25.1877C12.8464 25.1469 12.7027 24.8409 12.5796 24.6778Z" fill="white" stroke="white" stroke-miterlimit="10"/>
<path id="Vector_11" d="M33.9635 22.1489C34.2303 22.3121 34.456 22.3529 34.497 22.4752C34.7843 23.1891 35.0716 23.9029 35.2974 24.6575C35.3384 24.7799 35.1127 25.1062 34.969 25.1674C34.8254 25.2286 34.415 25.1266 34.3534 24.9838C34.0606 24.2706 33.8072 23.5421 33.5941 22.8016C33.553 22.6384 33.8198 22.3937 33.9635 22.1489Z" fill="white" stroke="white" stroke-miterlimit="10"/>
<path id="Vector_12" d="M17.9563 25.963C18.0794 25.3307 18.141 24.6985 18.3052 24.0866C18.3667 23.8623 18.7361 23.7603 18.9619 23.5972C19.1055 23.8215 19.3723 24.0663 19.3723 24.311C19.3245 24.9121 19.2145 25.5067 19.044 26.0854C18.9853 26.2123 18.9001 26.3252 18.7939 26.4167C18.6877 26.5082 18.563 26.576 18.4283 26.6156C18.1615 26.6564 17.8537 26.4729 17.5664 26.3709L17.9563 25.963Z" fill="white" stroke="white" stroke-miterlimit="10"/>
<path id="Vector_13" d="M28.5454 24.1476C28.648 24.0252 28.8122 23.6581 28.9969 23.6377C29.1336 23.6488 29.2654 23.6939 29.3801 23.7687C29.4948 23.8435 29.5889 23.9457 29.6536 24.066C29.8176 24.7214 29.9207 25.3905 29.9614 26.0647C29.9436 26.1832 29.8942 26.2948 29.8185 26.3881C29.7427 26.4813 29.6433 26.5527 29.5304 26.595C29.4095 26.5839 29.2934 26.5426 29.1929 26.4748C29.0924 26.407 29.0108 26.3151 28.9558 26.2075C28.7817 25.5287 28.6447 24.8411 28.5454 24.1476Z" fill="white" stroke="white" stroke-miterlimit="10"/>
<path id="Vector_14" d="M24.6054 25.5753L24.0308 26.9622C23.8666 26.5135 23.6204 26.0648 23.5998 25.6161C23.5793 25.1674 23.8256 24.6576 23.9487 24.1885L24.6054 25.5753Z" fill="white" stroke="white" stroke-miterlimit="10"/>
</g>
<defs>
<filter id="filter0_i_84_214" x="0" y="0" width="49" height="64" filterUnits="userSpaceOnUse" color-interpolation-filters="sRGB">
<feFlood flood-opacity="0" result="BackgroundImageFix"/>
<feBlend mode="normal" in="SourceGraphic" in2="BackgroundImageFix" result="shape"/>
<feColorMatrix in="SourceAlpha" type="matrix" values="0 0 0 0 0 0 0 0 0 0 0 0 0 0 0 0 0 0 127 0" result="hardAlpha"/>
<feOffset dx="1" dy="1"/>
<feGaussianBlur stdDeviation="0.5"/>
<feComposite in2="hardAlpha" operator="arithmetic" k2="-1" k3="1"/>
<feColorMatrix type="matrix" values="0 0 0 0 0 0 0 0 0 0 0 0 0 0 0 0 0 0 0.35 0"/>
<feBlend mode="normal" in2="shape" result="effect1_innerShadow_84_214"/>
</filter>
<clipPath id="clip0_84_214">
<rect width="48" height="63" fill="white"/>
</clipPath>
</defs>
</svg>
