<svg width="25" height="25" viewBox="0 0 25 25" fill="none" xmlns="http://www.w3.org/2000/svg">
<circle cx="12.5" cy="12.5" r="12.5" fill="#0F84F0"/>
<path d="M15.6509 4C15.9403 4.08965 16.2463 4.14277 16.5124 4.27559C17.4504 4.75039 17.9526 5.52734 18.0058 6.57656C18.0291 7.03809 18.0158 7.50625 18.0091 7.97109C18.0058 8.36289 17.7131 8.65176 17.3406 8.64844C16.9681 8.64512 16.6887 8.35625 16.6853 7.97441C16.682 7.59258 16.682 7.1543 16.682 6.7459C16.6787 5.89258 16.1166 5.32812 15.2651 5.32812H8.74912C7.90428 5.32812 7.3355 5.89258 7.3355 6.73262V18.2674C7.3355 19.1074 7.90428 19.6719 8.74912 19.6719H15.2651C16.1166 19.6719 16.6787 19.1074 16.682 18.2541V17.0754C16.6853 16.6537 16.9548 16.3549 17.3406 16.3516C17.7264 16.3482 18.0158 16.6471 18.0125 17.0787C18.0058 17.6232 18.0358 18.1678 17.9759 18.7023C17.8428 19.8744 16.9148 20.7941 15.7407 20.9701C15.7098 20.9771 15.6798 20.9871 15.6509 21H8.36661C8.18035 20.9535 7.99076 20.917 7.80782 20.8539C6.69688 20.4688 6.00504 19.4793 6.00504 18.274V7.56934C6.00504 7.24062 5.99173 6.90527 6.00836 6.57656C6.06824 5.52734 6.56716 4.75039 7.50514 4.27559C7.77123 4.14277 8.07724 4.08965 8.36661 4H15.6509Z" fill="white"/>
<path d="M23.0019 12.8984C22.8788 13.3599 22.5728 13.6986 22.2369 14.0174C21.8344 14.4058 21.4486 14.8109 21.0461 15.1994C20.9461 15.3014 20.8145 15.3667 20.6726 15.3848C20.5308 15.4029 20.387 15.3726 20.2645 15.299C20.0117 15.1595 19.872 14.884 19.9452 14.5984C19.9885 14.451 20.0673 14.3165 20.1747 14.2066C20.4907 13.8746 20.82 13.5558 21.1825 13.1972H13.2862C13.0667 13.1972 12.8638 13.1574 12.7108 12.9914C12.5578 12.8254 12.4713 12.5531 12.5711 12.2974C12.6709 12.0418 12.8638 11.9023 13.1365 11.8724C13.203 11.8658 13.2696 11.8691 13.3361 11.8691H21.1625C21.1127 11.8127 21.086 11.7761 21.0528 11.7429C20.7401 11.4308 20.4175 11.1254 20.1148 10.8C19.7489 10.4115 19.9352 9.81052 20.4507 9.6943C20.5535 9.66744 20.6616 9.66835 20.7639 9.69694C20.8662 9.72553 20.959 9.78077 21.0328 9.857C21.5717 10.3849 22.1138 10.9062 22.6227 11.4607C22.799 11.65 22.8788 11.9289 23.0019 12.1679V12.8984Z" fill="white"/>
</svg>
