<svg width="25" height="26" viewBox="0 0 25 26" fill="none" xmlns="http://www.w3.org/2000/svg">
<circle cx="12.5" cy="13.5" r="12.5" fill="#0F84F0"/>
<path d="M10.774 15.654C10.774 15.1407 10.8547 14.686 11.016 14.29C11.192 13.894 11.4047 13.542 11.654 13.234C11.918 12.926 12.1967 12.64 12.49 12.376C12.7833 12.112 13.0547 11.8627 13.304 11.628C13.568 11.3787 13.7807 11.122 13.942 10.858C14.118 10.594 14.206 10.3007 14.206 9.978C14.206 9.45 13.986 9.02467 13.546 8.702C13.1207 8.37933 12.5487 8.218 11.83 8.218C11.1407 8.218 10.5247 8.36467 9.982 8.658C9.43933 8.93667 8.992 9.33267 8.64 9.846L5.978 8.284C6.56467 7.38933 7.37867 6.678 8.42 6.15C9.46133 5.60733 10.7227 5.336 12.204 5.336C13.304 5.336 14.272 5.49733 15.108 5.82C15.944 6.128 16.5967 6.58267 17.066 7.184C17.55 7.78533 17.792 8.526 17.792 9.406C17.792 9.978 17.704 10.484 17.528 10.924C17.352 11.364 17.1247 11.7453 16.846 12.068C16.5673 12.3907 16.2667 12.6913 15.944 12.97C15.636 13.2487 15.3427 13.52 15.064 13.784C14.7853 14.048 14.5507 14.3267 14.36 14.62C14.184 14.9133 14.096 15.258 14.096 15.654H10.774ZM12.446 21.176C11.83 21.176 11.324 20.978 10.928 20.582C10.532 20.186 10.334 19.7167 10.334 19.174C10.334 18.6167 10.532 18.1547 10.928 17.788C11.324 17.4067 11.83 17.216 12.446 17.216C13.0767 17.216 13.5827 17.4067 13.964 17.788C14.36 18.1547 14.558 18.6167 14.558 19.174C14.558 19.7167 14.36 20.186 13.964 20.582C13.5827 20.978 13.0767 21.176 12.446 21.176Z" fill="white"/>
</svg>
