<svg width="25" height="25" viewBox="0 0 25 25" fill="none" xmlns="http://www.w3.org/2000/svg">
<circle cx="12.5" cy="12.5" r="12.5" fill="#0F84F0"/>
<path d="M11.4622 21.9998C11.2097 21.9138 10.9443 21.8299 10.7917 21.6023C10.6606 21.4107 10.5633 21.1981 10.5039 20.9738C10.4129 20.6031 10.3672 20.221 10.3105 19.8424C10.3069 19.7941 10.2884 19.7481 10.2578 19.7106C10.2271 19.6731 10.1857 19.6459 10.139 19.6327C9.80503 19.5045 9.47847 19.358 9.14496 19.2323C9.10757 19.2207 9.0682 19.2169 9.02929 19.2212C8.99038 19.2254 8.95277 19.2377 8.9188 19.2571C8.59572 19.4737 8.28258 19.7043 7.96348 19.9284C7.41673 20.309 6.84364 20.2652 6.36648 19.8002C5.99336 19.4361 5.62538 19.0685 5.26254 18.6971C4.79134 18.2152 4.7481 17.6368 5.13778 17.0848C5.35499 16.7768 5.58165 16.4752 5.79239 16.1626C5.8112 16.1282 5.82268 16.0903 5.8261 16.0512C5.82953 16.0121 5.82481 15.9727 5.81227 15.9356C5.68006 15.5962 5.52449 15.2688 5.39426 14.9269C5.34853 14.8062 5.2859 14.7526 5.16363 14.7337C4.78538 14.675 4.40812 14.609 4.03335 14.5434C3.39664 14.4331 3.00746 13.9769 3.00249 13.331C2.99917 12.8053 2.99917 12.2798 3.00249 11.7545C3.00746 11.1031 3.4041 10.6435 4.04628 10.5362C4.42403 10.4736 4.80228 10.4144 5.17854 10.3434C5.21141 10.3343 5.24206 10.3185 5.26856 10.2971C5.29507 10.2756 5.31688 10.2489 5.33263 10.2187C5.48936 9.85631 5.63847 9.49078 5.77997 9.12211C5.78879 9.08968 5.79083 9.05578 5.78595 9.02252C5.78108 8.98926 5.7694 8.95737 5.75163 8.92883C5.53592 8.61233 5.30877 8.30328 5.08808 7.99026C4.68249 7.4139 4.7317 6.83456 5.22874 6.33472C5.58165 5.97963 5.93637 5.62602 6.29292 5.27392C6.78996 4.78798 7.37001 4.74376 7.93316 5.14622C8.22493 5.35391 8.51768 5.5616 8.80398 5.77674C8.90339 5.85077 8.98192 5.86667 9.10221 5.81003C9.42578 5.65799 9.75632 5.51937 10.0903 5.39267C10.1396 5.3789 10.1834 5.35028 10.2158 5.31071C10.2481 5.27114 10.2675 5.22255 10.2713 5.17156C10.3418 4.74525 10.404 4.31696 10.4979 3.89562C10.5502 3.65106 10.6831 3.43112 10.8753 3.27111C11.0676 3.11109 11.308 3.02026 11.5581 3.01319C12.1635 2.99531 12.7704 2.99332 13.3758 3.01319C13.9379 3.03257 14.3644 3.44596 14.4653 4.0258C14.5309 4.40292 14.595 4.78053 14.6532 5.15864C14.6568 5.20382 14.6744 5.24675 14.7035 5.28148C14.7326 5.31621 14.7719 5.341 14.8157 5.35242C15.1786 5.49154 15.5378 5.63944 15.8933 5.79612C15.9325 5.81785 15.9774 5.8269 16.0219 5.822C16.0665 5.81711 16.1083 5.79851 16.1418 5.76879C16.4455 5.5457 16.7542 5.32907 17.0629 5.11194C17.6151 4.72439 18.1946 4.76761 18.6753 5.23764C19.0461 5.60201 19.4132 5.96952 19.7767 6.34018C20.241 6.81568 20.2857 7.39403 19.905 7.93859C19.6892 8.24763 19.4695 8.55387 19.2459 8.85728C19.2137 8.89328 19.1935 8.93839 19.1881 8.98636C19.1826 9.03434 19.1922 9.08281 19.2156 9.12509C19.3633 9.45633 19.5024 9.79238 19.6326 10.1332C19.6467 10.1827 19.6757 10.2265 19.7158 10.2587C19.7559 10.2909 19.8049 10.3099 19.8563 10.3131C20.2345 10.3702 20.6128 10.4318 20.989 10.5019C21.489 10.5953 21.824 10.879 21.9617 11.3784C21.9717 11.4073 21.9836 11.4355 21.9975 11.4628V13.5402C21.9829 13.5664 21.9703 13.5936 21.9597 13.6217C21.8176 14.126 21.4796 14.4132 20.9716 14.5041C20.5954 14.5732 20.2176 14.6348 19.8393 14.689C19.7911 14.6924 19.7452 14.7108 19.7079 14.7415C19.6706 14.7722 19.6437 14.8137 19.6311 14.8604C19.4994 15.1992 19.3627 15.5366 19.2136 15.8675C19.1883 15.9118 19.1778 15.9628 19.1834 16.0135C19.189 16.0641 19.2106 16.1116 19.2449 16.1492C19.4661 16.4473 19.6783 16.7499 19.891 17.0535C20.2792 17.606 20.239 18.1859 19.7698 18.6663C19.4073 19.038 19.0401 19.405 18.6683 19.7674C18.1862 20.2374 17.6066 20.2806 17.0569 19.8936C16.7438 19.673 16.4361 19.4464 16.1195 19.2298C16.0877 19.2118 16.0527 19.2006 16.0164 19.1967C15.9802 19.1929 15.9435 19.1965 15.9087 19.2074C15.5523 19.3445 15.198 19.4891 14.85 19.6461C14.8131 19.6668 14.7809 19.6947 14.7552 19.7283C14.7296 19.7619 14.7111 19.8004 14.7009 19.8414C14.6264 20.216 14.5707 20.5951 14.5056 20.9718C14.4295 21.4115 14.1949 21.731 13.7814 21.9103C13.7033 21.9441 13.6218 21.97 13.5418 21.9998H11.4622ZM20.9383 12.4983C20.9383 12.2697 20.9279 12.0402 20.9413 11.8121C20.9522 11.6328 20.8856 11.5637 20.7087 11.5359C20.238 11.4678 19.7708 11.3774 19.3006 11.3063C18.9889 11.2596 18.8269 11.0897 18.7215 10.7906C18.5409 10.2856 18.3345 9.79027 18.1032 9.30645C17.9715 9.02771 17.971 8.79667 18.1529 8.54873C18.4432 8.15621 18.7175 7.75375 19.0053 7.35626C19.0903 7.2395 19.0908 7.15752 18.9844 7.05268C18.6348 6.71183 18.2896 6.36651 17.9486 6.01672C17.8442 5.9089 17.7627 5.91189 17.6469 5.99735C17.2493 6.29099 16.8432 6.57321 16.445 6.86636C16.2159 7.03529 15.9863 7.05815 15.7372 6.91604C15.2333 6.62694 14.6933 6.40574 14.1313 6.2582C13.8728 6.19063 13.7222 6.02517 13.679 5.75587C13.5995 5.25553 13.5075 4.75768 13.4305 4.25734C13.4091 4.1207 13.3514 4.06903 13.2123 4.07101C12.7301 4.07698 12.2475 4.07996 11.7654 4.07101C11.6018 4.06754 11.5342 4.12368 11.5099 4.28268C11.4378 4.75221 11.3449 5.21926 11.2783 5.68979C11.232 6.01623 11.0621 6.19361 10.7514 6.3054C10.2544 6.48527 9.76526 6.69345 9.2881 6.92151C9.00528 7.05666 8.7682 7.06361 8.51371 6.87431C8.12701 6.58662 7.72738 6.31633 7.3387 6.02964C7.21791 5.9407 7.1354 5.93474 7.02456 6.05001C6.69005 6.39782 6.34809 6.73767 6.00115 7.07305C5.88882 7.18137 5.88534 7.26534 5.9763 7.38906C6.26558 7.78257 6.53796 8.18801 6.82972 8.58153C7.0191 8.83492 7.0186 9.06944 6.88489 9.35464C6.65806 9.8331 6.45794 10.3238 6.28546 10.8244C6.1771 11.1448 5.99817 11.3068 5.6736 11.3535C5.2029 11.4211 4.73518 11.509 4.26547 11.5826C4.12381 11.6044 4.06964 11.668 4.07212 11.8161C4.08074 12.2981 4.08074 12.7803 4.07212 13.263C4.07212 13.4195 4.1268 13.4811 4.2779 13.5049C4.766 13.5809 5.25161 13.6754 5.7402 13.7484C6.03843 13.7931 6.195 13.964 6.29987 14.2398C6.49173 14.7456 6.69751 15.2474 6.92963 15.7368C7.06035 16.0146 7.06483 16.2471 6.87993 16.4955C6.58965 16.8881 6.31479 17.2905 6.026 17.688C5.93852 17.8073 5.94896 17.8868 6.05284 17.9901C6.40077 18.327 6.74026 18.6668 7.07576 19.0136C7.18362 19.1254 7.26613 19.1319 7.39088 19.04C7.78405 18.7503 8.18914 18.477 8.58131 18.1864C8.8343 17.999 9.07189 17.9985 9.35669 18.1317C9.83038 18.3533 10.3165 18.553 10.8096 18.7279C11.1033 18.8313 11.2609 19.0027 11.3066 19.3033C11.3787 19.7793 11.4657 20.2533 11.5362 20.7298C11.5601 20.8908 11.6312 20.9439 11.7927 20.941C12.2624 20.9315 12.7326 20.9305 13.2023 20.941C13.3753 20.9449 13.4404 20.8818 13.4653 20.7149C13.5388 20.2265 13.6303 19.741 13.7078 19.2531C13.7516 18.9764 13.9066 18.8104 14.1721 18.7394C14.7108 18.5969 15.2278 18.3821 15.7089 18.1009C15.9709 17.9479 16.206 17.9702 16.449 18.1506C16.8422 18.4403 17.2443 18.7145 17.6419 19.0042C17.7657 19.0951 17.8477 19.0951 17.9575 18.9808C18.2881 18.638 18.6236 18.2996 18.968 17.9712C19.0963 17.849 19.0893 17.7581 18.9904 17.6234C18.7111 17.2458 18.4516 16.8538 18.1693 16.4806C17.9705 16.2158 17.968 15.9728 18.1136 15.6742C18.3427 15.2103 18.5419 14.7321 18.7101 14.2428C18.8249 13.9034 19.0162 13.7355 19.3647 13.6903C19.8299 13.6296 20.2912 13.5387 20.7564 13.4657C20.8891 13.4448 20.9497 13.3847 20.9458 13.2451C20.9328 12.9932 20.9378 12.7457 20.9383 12.4983Z" fill="white"/>
<path d="M20.9385 12.4984C20.9385 12.7469 20.933 12.9953 20.9385 13.2403C20.9425 13.3799 20.8818 13.439 20.7491 13.4609C20.2859 13.5339 19.8246 13.6248 19.3574 13.6854C19.0095 13.7307 18.8176 13.8986 18.7028 14.238C18.5347 14.7273 18.3355 15.2054 18.1064 15.6694C17.9607 15.9675 17.9627 16.211 18.162 16.4758C18.4443 16.851 18.7038 17.243 18.9831 17.6186C19.0826 17.7528 19.089 17.8437 18.9608 17.9664C18.6163 18.2948 18.2808 18.6332 17.9503 18.976C17.8404 19.0903 17.7584 19.0903 17.6347 18.9994C17.2415 18.7097 16.8394 18.4354 16.4418 18.1458C16.2002 17.9679 15.9636 17.947 15.7017 18.0961C15.2233 18.377 14.7092 18.5921 14.1732 18.7356C13.9063 18.8066 13.7527 18.9726 13.709 19.2493C13.6315 19.7372 13.54 20.2227 13.4665 20.7111C13.4416 20.878 13.3765 20.9411 13.2035 20.9371C12.7338 20.9267 12.2636 20.9277 11.7939 20.9371C11.6324 20.9401 11.5613 20.8875 11.5374 20.726C11.4668 20.2495 11.3799 19.7755 11.3078 19.2995C11.2621 18.9989 11.1045 18.8275 10.8107 18.7241C10.3177 18.5507 9.83157 18.351 9.35789 18.1279C9.07308 17.9947 8.8355 17.9952 8.5825 18.1825C8.19033 18.4732 7.78723 18.7465 7.39208 19.0362C7.26732 19.1281 7.18481 19.1216 7.07695 19.0098C6.74145 18.662 6.39948 18.3232 6.05404 17.9863C5.95016 17.8869 5.93972 17.8034 6.0272 17.6842C6.31598 17.2907 6.59084 16.8892 6.88112 16.4917C7.06453 16.2433 7.06005 16.0108 6.93082 15.733C6.6997 15.2436 6.49293 14.7393 6.30107 14.236C6.19619 13.9602 6.04211 13.7888 5.7414 13.7446C5.2528 13.6715 4.76719 13.5771 4.27909 13.5011C4.12998 13.4773 4.07083 13.4157 4.07332 13.2591C4.08193 12.7769 4.08193 12.2946 4.07332 11.8123C4.07332 11.6632 4.12302 11.6006 4.26667 11.5788C4.73637 11.5052 5.20409 11.4173 5.67479 11.3497C5.99936 11.303 6.1783 11.139 6.28665 10.8215C6.45897 10.3225 6.65875 9.83331 6.88509 9.35629C7.0188 9.07109 7.0193 8.83657 6.82992 8.58317C6.53816 8.19165 6.26578 7.78819 5.9765 7.3907C5.88554 7.26699 5.88902 7.18302 6.00135 7.0747C6.34928 6.73932 6.69025 6.39947 7.02476 6.05166C7.1356 5.93639 7.21811 5.94235 7.3389 6.03129C7.72758 6.31649 8.12721 6.58678 8.51391 6.87596C8.76839 7.06526 9.00548 7.0583 9.2883 6.92316C9.76546 6.6951 10.2546 6.48691 10.7516 6.30705C11.0623 6.19526 11.2322 6.01788 11.2785 5.69144C11.3451 5.22091 11.438 4.75386 11.5101 4.28432C11.5344 4.12533 11.602 4.06918 11.7656 4.07266C12.2477 4.08309 12.7303 4.08011 13.2125 4.07266C13.3516 4.07266 13.4113 4.12235 13.4307 4.25898C13.5097 4.75932 13.6016 5.25718 13.6792 5.75752C13.7224 6.02682 13.873 6.19227 14.1315 6.25985C14.6944 6.40848 15.2351 6.63102 15.7394 6.92167C15.988 7.06427 16.2181 7.04141 16.4472 6.87198C16.8449 6.57883 17.2514 6.29661 17.6491 6.00297C17.7649 5.91751 17.8479 5.91453 17.9508 6.02235C18.2914 6.37247 18.6367 6.71779 18.9866 7.0583C19.093 7.16215 19.0925 7.24512 19.0075 7.36189C18.7197 7.7559 18.4453 8.16034 18.1551 8.55436C17.9712 8.80279 17.9717 9.03333 18.1054 9.31207C18.3366 9.79524 18.543 10.2899 18.7237 10.7942C18.8291 11.0923 18.9911 11.2632 19.3027 11.31C19.7729 11.381 20.2402 11.4714 20.7109 11.5395C20.8878 11.5648 20.9544 11.6389 20.9435 11.8158C20.9281 12.0393 20.9385 12.2699 20.9385 12.4984ZM16.6008 12.493C16.5839 10.2248 14.7518 8.39784 12.4997 8.40381C10.2322 8.41027 8.38219 10.27 8.40754 12.5178C8.43289 14.7925 10.2685 16.6149 12.5151 16.5956C14.7856 16.5767 16.6177 14.7368 16.6008 12.493Z" fill="white"/>
</svg>
